<?xml version="1.0" encoding="iso-8859-1"?>
<!-- Generator: Adobe Illustrator 16.2.1, SVG Export Plug-In . SVG Version: 6.00 Build 0)  -->
<!DOCTYPE svg PUBLIC "-//W3C//DTD SVG 1.1//EN" "http://www.w3.org/Graphics/SVG/1.1/DTD/svg11.dtd">
<svg version="1.1" xmlns="http://www.w3.org/2000/svg" xmlns:xlink="http://www.w3.org/1999/xlink" x="0px" y="0px"
	 width="16.763px" height="31.723px" viewBox="0 0 16.763 31.723" style="enable-background:new 0 0 16.763 31.723;"
	 xml:space="preserve">
<g id="legs" style="display:none;">
	<g style="display:inline;">
		<path style="fill:#00AF35;stroke:#0E0F0F;stroke-miterlimit:10;" d="M8.531,9.844c0,0-24.916-16.599-33.8-6.079
			C-34.153,14.286,2.084,23.683,2.084,23.683s-23.613,8.604-24.08,10.007c-0.468,1.403,12.926-2.855,12.926-2.855l-7.315,8.7
			l11.456-5.143L-9.07,44.21l22.704-22.911L8.531,9.844z"/>
		<path style="fill:#00AF35;stroke:#0E0F0F;stroke-miterlimit:10;" d="M45.061,9.844c0,0,24.916-16.599,33.8-6.079
			c8.885,10.521-27.353,19.917-27.353,19.917s23.613,8.604,24.08,10.007c0.468,1.403-12.926-2.855-12.926-2.855l7.315,8.7
			l-11.456-5.143l4.141,9.819L39.958,21.299L45.061,9.844z"/>
	</g>
</g>
<g id="Layer_30" style="display:none;">
	<g style="display:inline;">
		<path style="fill:#00AF35;stroke:#0E0F0F;stroke-miterlimit:10;" d="M21.96,37.664c6.542-10.521,4.303-46.29-4.582-35.77
			C8.494,12.415,2.084,53.841,2.084,53.841s-23.613,8.604-24.08,10.008c-0.468,1.402,12.926-2.855,12.926-2.855l-7.315,8.699
			L-4.93,64.55l-4.141,9.818l22.704-22.91C13.634,51.458,15.417,48.185,21.96,37.664z"/>
		<path style="fill:#00AF35;stroke:#0E0F0F;stroke-miterlimit:10;" d="M33.666,37.664c-6.542-10.521-4.303-46.29,4.582-35.77
			c8.884,10.521,15.294,51.946,15.294,51.946s23.613,8.604,24.08,10.008c0.468,1.402-12.926-2.855-12.926-2.855l7.315,8.699
			L60.556,64.55l4.141,9.818l-22.704-22.91C41.992,51.458,40.209,48.185,33.666,37.664z"/>
	</g>
</g>
<g id="body" style="display:none;">
	<path style="display:inline;fill:#00AF35;stroke:#0E0F0F;stroke-miterlimit:10;" d="M14.934-23.248c0,0-17.175,14.973-18.227,26.72
		c-0.614,6.856,0.643,12.876,7.105,16.526c4.611,2.604,11.872,4.003,22.994,3.638c26.71-0.877,29.458-7.89,30.013-18.937
		s-17.19-27.368-17.19-27.368L14.934-23.248"/>
</g>
<g id="shoulders" style="display:none;">
	<path id="XMLID_2_" style="display:inline;fill:#007530;" d="M15.428-23.248c0,0-19.748,20.349-17.911,26.72
		C-0.645,9.844,26.99,8.675,26.99,8.675S57.304,9.546,56.586,4.7c-0.717-4.846-3.892-15.459-16.893-27.368
		S15.428-23.248,15.428-23.248z"/>
</g>
<g id="bill" style="display:none;">
	<path style="display:inline;fill:#FFFFFF;stroke:#0B0C0C;stroke-miterlimit:10;" d="M3.812,19.999c0,0,4-31.43,22.117-31.08
		c18.119,0.351,23.294,30.634,23.839,30.309c0.546-0.325-1.98,3.882-22.962,4.408C5.824,24.163,3.812,19.999,3.812,19.999z"/>
</g>
<g id="headGreen" style="display:none;">
	<path style="display:inline;fill:#00AE37;stroke:#020202;stroke-miterlimit:10;" d="M-4.93-20.549c0,0,0.936-31.911,30.859-31.969
		c29.925-0.059,30.86,30.801,30.86,30.801S54.452-6.989,25.93-6.755C-2.592-6.521-4.93-20.549-4.93-20.549z"/>
</g>
<g id="headBottom" style="display:none;">
	<path style="display:inline;fill:#FFFFFF;stroke:#020202;stroke-miterlimit:10;" d="M3.814-10.924c0,0,3.412-29.964,22.817-29.029
		c19.404,0.935,21.976,27.586,21.976,27.586s-5.145,5.845-21.977,5.845S3.814-10.924,3.814-10.924z"/>
</g>
<g id="mouth" style="display:none;">
	<path style="display:inline;fill:#8E1010;stroke:#020202;stroke-miterlimit:10;" d="M9.564-28.03c0,0,3.087-11.622,16.021-11.923
		S44.049-28.03,44.049-28.03s-6.08,10.754-17.242,10.754C15.644-17.276,9.564-28.03,9.564-28.03z"/>
</g>
<g id="tongue" style="display:none;">
	<path style="display:inline;fill:#FF0600;" d="M14.24-24.055c0,0,3.975-7.013,13.093-6.78c9.117,0.233,12.624,6.78,12.624,6.78
		s-4.441,5.377-12.857,5.377C18.683-18.678,14.24-24.055,14.24-24.055z"/>
</g>
<g id="eyes" style="display:none;">
	<g style="display:inline;">
		<ellipse style="fill:#FFFFFF;stroke:#000000;stroke-miterlimit:10;" cx="10.617" cy="-51.292" rx="10.403" ry="11.339"/>
		<ellipse style="fill:#FFFFFF;stroke:#000000;stroke-miterlimit:10;" cx="42.178" cy="-51.292" rx="10.404" ry="11.339"/>
		<circle cx="13.634" cy="-51.292" r="5.103"/>
		<circle cx="39.628" cy="-51.292" r="5.103"/>
		<circle style="fill:#F7F7F7;" cx="14.934" cy="-52.302" r="2.359"/>
		<circle style="fill:#F7F7F7;" cx="38.618" cy="-52.302" r="2.359"/>
	</g>
</g>
<g id="nose" style="display:none;">
	<g style="display:inline;">
		<line style="fill:none;stroke:#000000;stroke-miterlimit:10;" x1="24.147" y1="-41.239" x2="22.92" y2="-42.905"/>
		<line style="fill:none;stroke:#000000;stroke-miterlimit:10;" x1="28.093" y1="-41.239" x2="28.882" y2="-42.905"/>
	</g>
</g>
<g id="shadow" style="display:none;">
	<path style="display:inline;opacity:0.4;fill:#020202;" d="M-4.696-23.248c0,0,3.741,13.92,31.912,13.745
		s29.32-15.257,29.32-15.257l0.283,3.042c0,0-3.815,14.671-30.057,15.196C0.521-5.996-4.93-19.321-4.93-19.321L-4.696-23.248z"/>
</g>
<g id="armL">
	<path style="fill:#007530;stroke:#000000;stroke-miterlimit:10;" d="M0.447,0.223c0,0,7.014,14.063,3.741,27.155
		c0,0,3.74-1.403,4.441-3.975l0.936,7.247c0,0,2.338-2.338,2.806-5.845c0.467-3.507,2.805,4.675,3.039,5.845
		c0.233,1.169,3.975-2.805-6.312-24.313L6.525,0.223"/>
</g>
<g id="armR" style="display:none;">
	<path style="display:inline;fill:#00712A;stroke:#000000;stroke-miterlimit:10;" d="M52.031,0.223c0,0-7.013,14.063-3.74,27.155
		c0,0-3.74-1.403-4.441-3.975l-0.936,7.247c0,0-2.338-2.338-2.806-5.845c-0.467-3.507-2.806,4.675-3.039,5.845
		c-0.233,1.169-3.975-2.805,6.312-24.313l2.572-6.114"/>
</g>
</svg>
