<?xml version="1.0" encoding="iso-8859-1"?>
<!-- Generator: Adobe Illustrator 16.2.1, SVG Export Plug-In . SVG Version: 6.00 Build 0)  -->
<!DOCTYPE svg PUBLIC "-//W3C//DTD SVG 1.1//EN" "http://www.w3.org/Graphics/SVG/1.1/DTD/svg11.dtd">
<svg version="1.1" xmlns="http://www.w3.org/2000/svg" xmlns:xlink="http://www.w3.org/1999/xlink" x="0px" y="0px"
	 width="16.762px" height="31.723px" viewBox="0 0 16.762 31.723" style="enable-background:new 0 0 16.762 31.723;"
	 xml:space="preserve">
<g id="legs" style="display:none;">
	<g style="display:inline;">
		<path style="fill:#00AF35;stroke:#0E0F0F;stroke-miterlimit:10;" d="M-27.186,9.844c0,0-24.916-16.599-33.8-6.079
			c-8.885,10.521,27.353,19.917,27.353,19.917s-23.613,8.604-24.08,10.007c-0.468,1.403,12.926-2.855,12.926-2.855l-7.315,8.7
			l11.456-5.143l-4.141,9.819l22.704-22.911L-27.186,9.844z"/>
		<path style="fill:#00AF35;stroke:#0E0F0F;stroke-miterlimit:10;" d="M9.344,9.844c0,0,24.916-16.599,33.8-6.079
			c8.885,10.521-27.353,19.917-27.353,19.917s23.613,8.604,24.08,10.007c0.468,1.403-12.926-2.855-12.926-2.855l7.315,8.7
			l-11.456-5.143l4.141,9.819L4.241,21.299L9.344,9.844z"/>
	</g>
</g>
<g id="Layer_30" style="display:none;">
	<g style="display:inline;">
		<path style="fill:#00AF35;stroke:#0E0F0F;stroke-miterlimit:10;" d="M-13.757,37.664c6.542-10.521,4.303-46.29-4.582-35.77
			c-8.884,10.521-15.294,51.946-15.294,51.946s-23.613,8.604-24.08,10.008c-0.468,1.402,12.926-2.855,12.926-2.855l-7.315,8.699
			l11.456-5.143l-4.141,9.818l22.704-22.91C-22.083,51.458-20.3,48.185-13.757,37.664z"/>
		<path style="fill:#00AF35;stroke:#0E0F0F;stroke-miterlimit:10;" d="M-2.051,37.664c-6.542-10.521-4.303-46.29,4.582-35.77
			c8.884,10.521,15.294,51.946,15.294,51.946s23.613,8.604,24.08,10.008c0.468,1.402-12.926-2.855-12.926-2.855l7.315,8.699
			L24.839,64.55l4.141,9.818L6.275,51.458C6.275,51.458,4.492,48.185-2.051,37.664z"/>
	</g>
</g>
<g id="body" style="display:none;">
	<path style="display:inline;fill:#00AF35;stroke:#0E0F0F;stroke-miterlimit:10;" d="M-20.783-23.248
		c0,0-17.175,14.973-18.227,26.72c-0.614,6.856,0.643,12.876,7.105,16.526c4.611,2.604,11.872,4.003,22.994,3.638
		C17.8,22.76,20.548,15.747,21.103,4.7S3.912-22.667,3.912-22.667L-20.783-23.248"/>
</g>
<g id="shoulders" style="display:none;">
	<path id="XMLID_2_" style="display:inline;fill:#007530;" d="M-20.289-23.248c0,0-19.748,20.349-17.911,26.72
		c1.839,6.371,29.474,5.202,29.474,5.202S21.587,9.546,20.869,4.7c-0.717-4.846-3.892-15.459-16.893-27.368
		S-20.289-23.248-20.289-23.248z"/>
</g>
<g id="bill" style="display:none;">
	<path style="display:inline;fill:#FFFFFF;stroke:#0B0C0C;stroke-miterlimit:10;" d="M-31.904,19.999c0,0,4-31.43,22.117-31.08
		C8.332-10.73,13.507,19.554,14.052,19.229c0.546-0.325-1.98,3.882-22.962,4.408C-29.893,24.163-31.904,19.999-31.904,19.999z"/>
</g>
<g id="headGreen" style="display:none;">
	<path style="display:inline;fill:#00AE37;stroke:#020202;stroke-miterlimit:10;" d="M-40.646-20.549
		c0,0,0.936-31.911,30.859-31.969c29.925-0.059,30.86,30.801,30.86,30.801S18.735-6.989-9.787-6.755
		C-38.309-6.521-40.646-20.549-40.646-20.549z"/>
</g>
<g id="headBottom" style="display:none;">
	<path style="display:inline;fill:#FFFFFF;stroke:#020202;stroke-miterlimit:10;" d="M-31.902-10.924
		c0,0,3.412-29.964,22.817-29.029c19.404,0.935,21.976,27.586,21.976,27.586S7.746-6.521-9.086-6.521S-31.902-10.924-31.902-10.924z
		"/>
</g>
<g id="mouth" style="display:none;">
	<path style="display:inline;fill:#8E1010;stroke:#020202;stroke-miterlimit:10;" d="M-26.152-28.03c0,0,3.087-11.622,16.021-11.923
		S8.332-28.03,8.332-28.03S2.252-17.276-8.91-17.276C-20.073-17.276-26.152-28.03-26.152-28.03z"/>
</g>
<g id="tongue" style="display:none;">
	<path style="display:inline;fill:#FF0600;" d="M-21.477-24.055c0,0,3.975-7.013,13.093-6.78c9.117,0.233,12.624,6.78,12.624,6.78
		s-4.441,5.377-12.857,5.377C-17.034-18.678-21.477-24.055-21.477-24.055z"/>
</g>
<g id="eyes" style="display:none;">
	<g style="display:inline;">
		<ellipse style="fill:#FFFFFF;stroke:#000000;stroke-miterlimit:10;" cx="-25.1" cy="-51.292" rx="10.403" ry="11.339"/>
		<ellipse style="fill:#FFFFFF;stroke:#000000;stroke-miterlimit:10;" cx="6.461" cy="-51.292" rx="10.404" ry="11.339"/>
		<circle cx="-22.083" cy="-51.292" r="5.103"/>
		<circle cx="3.912" cy="-51.292" r="5.103"/>
		<circle style="fill:#F7F7F7;" cx="-20.783" cy="-52.302" r="2.359"/>
		<circle style="fill:#F7F7F7;" cx="2.901" cy="-52.302" r="2.359"/>
	</g>
</g>
<g id="nose" style="display:none;">
	<g style="display:inline;">
		<line style="fill:none;stroke:#000000;stroke-miterlimit:10;" x1="-11.569" y1="-41.239" x2="-12.797" y2="-42.905"/>
		<line style="fill:none;stroke:#000000;stroke-miterlimit:10;" x1="-7.624" y1="-41.239" x2="-6.835" y2="-42.905"/>
	</g>
</g>
<g id="shadow" style="display:none;">
	<path style="display:inline;opacity:0.4;fill:#020202;" d="M-40.413-23.248c0,0,3.741,13.92,31.912,13.745
		s29.32-15.257,29.32-15.257l0.283,3.042c0,0-3.815,14.671-30.057,15.196c-26.242,0.525-31.692-12.8-31.692-12.8L-40.413-23.248z"/>
</g>
<g id="armL" style="display:none;">
	<path style="display:inline;fill:#007530;stroke:#000000;stroke-miterlimit:10;" d="M-35.27,0.223c0,0,7.014,14.063,3.741,27.155
		c0,0,3.74-1.403,4.441-3.975l0.936,7.247c0,0,2.338-2.338,2.806-5.845c0.467-3.507,2.805,4.675,3.039,5.845
		c0.233,1.169,3.975-2.805-6.312-24.313l-2.572-6.114"/>
</g>
<g id="armR">
	<path style="fill:#00712A;stroke:#000000;stroke-miterlimit:10;" d="M16.314,0.223c0,0-7.013,14.063-3.74,27.155
		c0,0-3.74-1.403-4.441-3.975L7.197,30.65c0,0-2.338-2.338-2.806-5.845c-0.467-3.507-2.806,4.675-3.039,5.845
		c-0.233,1.169-3.975-2.805,6.312-24.313l2.572-6.114"/>
</g>
</svg>
