<?xml version="1.0" encoding="iso-8859-1"?>
<!-- Generator: Adobe Illustrator 16.2.1, SVG Export Plug-In . SVG Version: 6.00 Build 0)  -->
<!DOCTYPE svg PUBLIC "-//W3C//DTD SVG 1.1//EN" "http://www.w3.org/Graphics/SVG/1.1/DTD/svg11.dtd">
<svg version="1.1" xmlns="http://www.w3.org/2000/svg" xmlns:xlink="http://www.w3.org/1999/xlink" x="0px" y="0px"
	 width="61.264px" height="47.941px" viewBox="0 0 61.264 47.941" style="enable-background:new 0 0 61.264 47.941;"
	 xml:space="preserve">
<g id="legs" style="display:none;">
	<g style="display:inline;">
		<path style="fill:#00AF35;stroke:#0E0F0F;stroke-miterlimit:10;" d="M12.463,33.591c0,0-24.916-16.599-33.8-6.079
			C-30.222,38.033,6.016,47.43,6.016,47.43s-23.613,8.604-24.08,10.007c-0.468,1.403,12.926-2.855,12.926-2.855l-7.315,8.7
			l11.456-5.143l-4.141,9.819l22.704-22.911L12.463,33.591z"/>
		<path style="fill:#00AF35;stroke:#0E0F0F;stroke-miterlimit:10;" d="M48.992,33.591c0,0,24.916-16.599,33.8-6.079
			C91.677,38.033,55.439,47.43,55.439,47.43s23.613,8.604,24.08,10.007c0.468,1.403-12.926-2.855-12.926-2.855l7.315,8.7
			l-11.456-5.143l4.141,9.819L43.89,45.046L48.992,33.591z"/>
	</g>
</g>
<g id="Layer_30" style="display:none;">
	<g style="display:inline;">
		<path style="fill:#00AF35;stroke:#0E0F0F;stroke-miterlimit:10;" d="M25.892,61.412c6.542-10.521,4.303-46.29-4.582-35.77
			C12.426,36.163,6.016,77.588,6.016,77.588s-23.613,8.604-24.08,10.008c-0.468,1.402,12.926-2.855,12.926-2.855l-7.315,8.699
			l11.456-5.143l-4.141,9.818l22.704-22.91C17.565,75.206,19.349,71.932,25.892,61.412z"/>
		<path style="fill:#00AF35;stroke:#0E0F0F;stroke-miterlimit:10;" d="M37.598,61.412c-6.542-10.521-4.303-46.29,4.582-35.77
			c8.884,10.521,15.294,51.946,15.294,51.946s23.613,8.604,24.08,10.008c0.468,1.402-12.926-2.855-12.926-2.855l7.315,8.699
			l-11.456-5.143l4.141,9.818l-22.704-22.91C45.924,75.206,44.141,71.932,37.598,61.412z"/>
	</g>
</g>
<g id="body">
	<path style="fill:#00AF35;stroke:#0E0F0F;stroke-miterlimit:10;" d="M18.865,0.5c0,0-17.175,14.973-18.227,26.72
		c-0.614,6.856,0.643,12.876,7.105,16.526c4.611,2.604,11.872,4.003,22.994,3.638c26.71-0.877,29.458-7.89,30.013-18.937
		S43.561,1.08,43.561,1.08L18.865,0.5"/>
</g>
<g id="shoulders" style="display:none;">
	<path id="XMLID_2_" style="display:inline;fill:#007530;" d="M19.359,0.5c0,0-19.748,20.349-17.911,26.72
		c1.839,6.371,29.474,5.202,29.474,5.202s30.313,0.871,29.596-3.975c-0.717-4.846-3.892-15.459-16.893-27.368S19.359,0.5,19.359,0.5
		z"/>
</g>
<g id="bill" style="display:none;">
	<path style="display:inline;fill:#FFFFFF;stroke:#0B0C0C;stroke-miterlimit:10;" d="M7.744,43.747c0,0,4-31.43,22.117-31.08
		C47.98,13.018,53.155,43.301,53.7,42.976c0.546-0.325-1.98,3.882-22.962,4.408C9.756,47.91,7.744,43.747,7.744,43.747z"/>
</g>
<g id="headGreen" style="display:none;">
	<path style="display:inline;fill:#00AE37;stroke:#020202;stroke-miterlimit:10;" d="M-0.998,3.199c0,0,0.936-31.911,30.859-31.969
		C59.786-28.83,60.722,2.03,60.722,2.03s-2.338,14.729-30.86,14.962C1.34,17.226-0.998,3.199-0.998,3.199z"/>
</g>
<g id="headBottom" style="display:none;">
	<path style="display:inline;fill:#FFFFFF;stroke:#020202;stroke-miterlimit:10;" d="M7.746,12.824c0,0,3.412-29.964,22.817-29.029
		c19.404,0.935,21.976,27.586,21.976,27.586s-5.145,5.845-21.977,5.845S7.746,12.824,7.746,12.824z"/>
</g>
<g id="mouth" style="display:none;">
	<path style="display:inline;fill:#8E1010;stroke:#020202;stroke-miterlimit:10;" d="M13.496-4.282c0,0,3.087-11.622,16.021-11.923
		S47.98-4.282,47.98-4.282S41.9,6.472,30.738,6.472C19.575,6.472,13.496-4.282,13.496-4.282z"/>
</g>
<g id="tongue" style="display:none;">
	<path style="display:inline;fill:#FF0600;" d="M18.172-0.308c0,0,3.975-7.013,13.093-6.78c9.117,0.233,12.624,6.78,12.624,6.78
		s-4.441,5.377-12.857,5.377C22.614,5.069,18.172-0.308,18.172-0.308z"/>
</g>
<g id="eyes" style="display:none;">
	<g style="display:inline;">
		<ellipse style="fill:#FFFFFF;stroke:#000000;stroke-miterlimit:10;" cx="14.549" cy="-27.544" rx="10.403" ry="11.339"/>
		<ellipse style="fill:#FFFFFF;stroke:#000000;stroke-miterlimit:10;" cx="46.11" cy="-27.544" rx="10.404" ry="11.339"/>
		<circle cx="17.565" cy="-27.544" r="5.103"/>
		<circle cx="43.56" cy="-27.544" r="5.103"/>
		<circle style="fill:#F7F7F7;" cx="18.866" cy="-28.554" r="2.359"/>
		<circle style="fill:#F7F7F7;" cx="42.549" cy="-28.554" r="2.359"/>
	</g>
</g>
<g id="nose" style="display:none;">
	<g style="display:inline;">
		<line style="fill:none;stroke:#000000;stroke-miterlimit:10;" x1="28.079" y1="-17.491" x2="26.852" y2="-19.157"/>
		<line style="fill:none;stroke:#000000;stroke-miterlimit:10;" x1="32.024" y1="-17.491" x2="32.813" y2="-19.157"/>
	</g>
</g>
<g id="shadow" style="display:none;">
	<path style="display:inline;opacity:0.4;fill:#020202;" d="M-0.765,0.5c0,0,3.741,13.92,31.912,13.745s29.32-15.257,29.32-15.257
		l0.283,3.042c0,0-3.815,14.671-30.057,15.196C4.452,17.752-0.998,4.426-0.998,4.426L-0.765,0.5z"/>
</g>
<g id="armL" style="display:none;">
	<path style="display:inline;fill:#007530;stroke:#000000;stroke-miterlimit:10;" d="M4.379,23.971c0,0,7.014,14.063,3.741,27.155
		c0,0,3.74-1.403,4.441-3.975l0.936,7.247c0,0,2.338-2.338,2.806-5.845c0.467-3.507,2.805,4.675,3.039,5.845
		c0.233,1.169,3.975-2.805-6.312-24.313l-2.572-6.114"/>
</g>
<g id="armR" style="display:none;">
	<path style="display:inline;fill:#00712A;stroke:#000000;stroke-miterlimit:10;" d="M55.963,23.971c0,0-7.013,14.063-3.74,27.155
		c0,0-3.74-1.403-4.441-3.975l-0.936,7.247c0,0-2.338-2.338-2.806-5.845c-0.467-3.507-2.806,4.675-3.039,5.845
		c-0.233,1.169-3.975-2.805,6.312-24.313l2.572-6.114"/>
</g>
</svg>
