<?xml version="1.0" encoding="iso-8859-1"?>
<!-- Generator: Adobe Illustrator 16.2.1, SVG Export Plug-In . SVG Version: 6.00 Build 0)  -->
<!DOCTYPE svg PUBLIC "-//W3C//DTD SVG 1.1//EN" "http://www.w3.org/Graphics/SVG/1.1/DTD/svg11.dtd">
<svg version="1.1" xmlns="http://www.w3.org/2000/svg" xmlns:xlink="http://www.w3.org/1999/xlink" x="0px" y="0px"
	 width="66.964px" height="52.786px" viewBox="0 0 66.964 52.786" style="enable-background:new 0 0 66.964 52.786;"
	 xml:space="preserve">
<g id="Layer_26" style="display:none;">
	<g style="display:inline;">
		<radialGradient id="SVGID_1_" cx="70.0078" cy="108.916" r="743.1027" gradientUnits="userSpaceOnUse">
			<stop  offset="0.2798" style="stop-color:#D6EEFA"/>
			<stop  offset="0.4728" style="stop-color:#88D4FC"/>
			<stop  offset="0.6369" style="stop-color:#4DC0FE"/>
			<stop  offset="0.7572" style="stop-color:#28B4FF"/>
			<stop  offset="0.8209" style="stop-color:#1AAFFF"/>
		</radialGradient>
		<rect x="-349.033" y="-619.589" style="fill:url(#SVGID_1_);" width="803.364" height="919.821"/>
		<radialGradient id="SVGID_2_" cx="69.915" cy="109.1748" r="839.0167" gradientUnits="userSpaceOnUse">
			<stop  offset="0.2538" style="stop-color:#D6EEFA"/>
			<stop  offset="0.459" style="stop-color:#88D4FC"/>
			<stop  offset="0.6336" style="stop-color:#4DC0FE"/>
			<stop  offset="0.7615" style="stop-color:#28B4FF"/>
			<stop  offset="0.8293" style="stop-color:#1AAFFF"/>
		</radialGradient>
		<polygon style="fill:url(#SVGID_2_);" points="159.762,293.515 195.115,293.515 66.486,2.682 66.563,2.681 222.535,293.515 
			264.181,293.515 68.397,4.489 297.448,293.515 350.696,293.515 68.768,3.763 395.448,293.515 471.138,293.515 68.578,2.74 
			494.727,265.868 494.727,210.283 67.882,1.648 494.727,173.746 494.727,126.521 69.622,1.575 494.727,94.499 494.727,51.483 
			69.92,0.888 494.727,21.4 494.727,-20.354 66.863,0.255 66.902,0.203 494.727,-50.69 494.727,-93.776 67.893,-0.526 
			494.727,-125.917 494.727,-173.254 66.464,-0.629 66.503,-0.719 66.456,-0.629 66.228,-0.542 66.249,-0.625 494.727,-209.999 
			494.727,-265.781 65.786,-0.945 65.786,-0.951 494.727,-310.697 494.727,-382.051 66.888,-2.61 494.727,-442.227 
			494.727,-543.656 65.026,-1.416 65.006,-1.499 493.405,-633.804 494.727,-635.75 494.727,-682.656 429.667,-682.656 
			423.988,-672.063 64.378,-1.443 64.286,-1.587 365.557,-682.656 283.341,-682.656 63.801,-1.759 227.08,-682.656 
			152.218,-682.656 63.897,-6.7 99.657,-682.656 27.002,-682.656 62.896,-4.641 -25.657,-682.656 -100.575,-682.656 62.904,-0.787 
			62.921,-0.78 63.014,-0.362 62.994,-0.365 62.842,-0.814 -156.991,-682.656 -239.276,-682.656 62.501,-0.362 -297.227,-671.211 
			-303.363,-682.656 -375.649,-682.656 -375.649,-646.307 -366.616,-632.975 61.162,-1.505 -375.649,-552.685 -375.649,-449.437 
			61.431,-0.273 -375.649,-387.87 -375.649,-315.232 60.604,-0.167 -375.649,-269.474 -375.649,-212.639 61.935,1.2 61.686,1.283 
			61.964,1.219 62.151,1.305 61.964,1.41 -375.649,-174.938 -375.649,-126.654 61.831,1.873 61.686,2.007 -375.649,-93.483 
			-375.649,-49.545 60.328,2.328 -375.649,-18.613 -375.649,24.034 60.812,2.95 -375.649,55.003 -375.649,99.004 59.965,3.779 
			-375.649,131.898 -375.649,180.23 60.404,4.395 -375.649,217.636 -375.649,274.601 60.582,5.198 -338.414,293.515 
			-263.19,293.515 63.277,3.903 -218.393,293.515 -165.464,293.515 63.109,4.989 -132.233,293.515 -90.791,293.515 64.398,4 
			-63.564,293.515 -28.331,293.515 65.124,3.527 65.206,3.613 65.128,3.506 65.248,3.172 65.303,3.217 65.206,3.613 -4.223,293.515 
			27.844,293.515 65.415,5.741 50.236,293.515 81.381,293.515 66.274,8.171 103.579,293.515 135.74,293.515 66.143,3.254 
			66.148,3.261 		"/>
	</g>
</g>
<g id="Layer_27" style="display:none;">
	<g style="display:inline;">
		
			<linearGradient id="SVGID_3_" gradientUnits="userSpaceOnUse" x1="-182.2661" y1="-194.6831" x2="-177.3385" y2="7.3465" gradientTransform="matrix(-0.9953 0.0973 0.0973 0.9953 -179.9549 -5.6388)">
			<stop  offset="0" style="stop-color:#F5F9C7"/>
			<stop  offset="0.5215" style="stop-color:#CCDD4B"/>
			<stop  offset="0.7319" style="stop-color:#598923"/>
			<stop  offset="1" style="stop-color:#528421"/>
		</linearGradient>
		<path style="fill:url(#SVGID_3_);" d="M-383.506-115.852c1.083,0.044,2.23,0.378,3.405,0.17
			c63.741-11.32,127.429-7.93,194.964-2.411c53.275,4.352,110.976,21.865,165.639,17.378
			c52.608-4.314,104.533-22.043,157.109-23.072c126.303-2.467,230.036,66.531,230.036,66.531l-739.487,92.299L-383.506-115.852z"/>
		
			<linearGradient id="SVGID_4_" gradientUnits="userSpaceOnUse" x1="-319.7319" y1="-227.937" x2="-319.7319" y2="29.024" gradientTransform="matrix(-0.9576 0.0523 0.0545 0.9985 -156.2334 -3.6279)">
			<stop  offset="0" style="stop-color:#F5F9C7"/>
			<stop  offset="0.4663" style="stop-color:#CCDD4B"/>
			<stop  offset="0.5207" style="stop-color:#C1D547"/>
			<stop  offset="0.6159" style="stop-color:#A4C03D"/>
			<stop  offset="0.7396" style="stop-color:#769E2D"/>
			<stop  offset="0.8081" style="stop-color:#598923"/>
			<stop  offset="1" style="stop-color:#528421"/>
		</linearGradient>
		<path style="fill:url(#SVGID_4_);" d="M-151.926,11.588c2.764,64.704,140.42,107.727,307.466,96.09
			C322.586,96.04,455.762,34.154,452.997-30.55c-2.763-64.7-140.42-107.721-307.464-96.085
			C-21.514-114.998-154.689-53.111-151.926,11.588z"/>
		
			<linearGradient id="SVGID_5_" gradientUnits="userSpaceOnUse" x1="-234.3071" y1="-211.9141" x2="-228.6963" y2="18.1297" gradientTransform="matrix(-1 0 0 1 -162.335 0)">
			<stop  offset="0" style="stop-color:#F5F9C7"/>
			<stop  offset="0.547" style="stop-color:#CCDD4B"/>
			<stop  offset="0.7874" style="stop-color:#598923"/>
			<stop  offset="1" style="stop-color:#528421"/>
		</linearGradient>
		<path style="fill:url(#SVGID_5_);" d="M-359.19-114.872c1.234,0.205,2.523,0.435,3.875,0.679
			c76.885,14.055,156.036,14.108,232.735,30.1C-62.075-71.479-7.371-48.11,55.491-45.432c60.503,2.578,121.394-10.317,181.572-3.974
			C381.624-34.161,494.141,59.786,494.141,59.786h-853.197L-359.19-114.872z"/>
		
			<linearGradient id="SVGID_6_" gradientUnits="userSpaceOnUse" x1="194.0107" y1="-253.5996" x2="211.6306" y2="92.0237" gradientTransform="matrix(1 0 0 1 -91.8672 0)">
			<stop  offset="0" style="stop-color:#F5F9C7"/>
			<stop  offset="0.5215" style="stop-color:#CCDD4B"/>
			<stop  offset="0.7056" style="stop-color:#528421"/>
		</linearGradient>
		<path style="fill:url(#SVGID_6_);" d="M-326.305,58.562l-79.61-21.226C-341.7,15.294-57.799-67.4,143.32-71.342
			c0,0,249.689-3.688,414.405,83.562c36.894,19.547,64.996,35.595,83.222,46.343H-326.305z"/>
	</g>
	<g style="display:inline;">
		<g>
		</g>
	</g>
</g>
<g id="Layer_29" style="display:none;">
</g>
<g id="Layer_25" style="display:none;">
	<path style="display:inline;fill:#848484;" d="M-249.961,61.034c0,0-184.719-235.297,212.945-121.339
		C360.648,53.654-249.961,61.034-249.961,61.034"/>
	<path style="display:inline;fill:#848484;" d="M31.853-15.215c0,0,283.749-248.693,344.42,45.46
		C312.437,106.945,31.853-15.215,31.853-15.215z"/>
	<path style="display:inline;fill:#848484;" d="M-238.794,52.726c0,0-128.601-156.798,136.785-102.439
		c25.721,6.426,162.506-53.79,201.085,15.482c0,0,149.45-98.944,195.728-23.603c46.277,75.339,20.184,67.066,20.184,67.066
		s111.968,26.705,84.547,56.453c-27.419,29.748-55.532,47.188-55.532,47.188s-97.619,40.248-102.296,50.771
		c-4.676,10.522,16.369,84.177-68.976,74.823C87.385,229.111,30.1,199.886,30.1,199.886s-14.503-22.811-32.735-26.892
		c-18.23-4.081-102.882,70.147-157.245-15.197C-214.243,72.452-331.153,78.594-238.794,52.726z"/>
</g>
<g id="Layer_20" style="display:none;">
	<path style="display:inline;fill:#9CDA49;" d="M-247.961,52.034c0,0-184.719-235.297,212.945-121.339
		C362.648,44.654-247.961,52.034-247.961,52.034"/>
	<path style="display:inline;fill:#9CDA49;" d="M33.853-24.215c0,0,283.749-248.693,344.42,45.46
		C314.437,97.945,33.853-24.215,33.853-24.215z"/>
</g>
<g id="Layer_19" style="display:none;">
	<path style="display:inline;fill:#5FAF84;" d="M-236.794,43.726c0,0-128.601-156.798,136.785-102.439
		c25.721,6.425,162.506-53.79,201.085,15.483c0,0,149.45-98.944,195.728-23.604c46.277,75.339,20.184,67.066,20.184,67.066
		s111.968,26.705,84.547,56.453c-27.419,29.748-55.532,47.188-55.532,47.188s-97.619,40.248-102.296,50.771
		c-4.676,10.522,16.369,84.177-68.976,74.823C89.385,220.111,32.1,190.886,32.1,190.886s-14.503-22.811-32.735-26.892
		c-18.231-4.081-102.883,70.147-157.246-15.197C-212.243,63.452-329.153,69.594-236.794,43.726z"/>
</g>
<g id="Layer_17" style="display:none;">
	<path style="display:inline;fill:#00C0C0;" d="M-84.194-18.632c0,0-194.975-54.689-153.959,52.308c0,0-75.49,38.044,42.206,46.365
		c0,0-54.686,40.422,43.988,36.856c0,0,49.931,90.353,152.172,33.881c0,0,20.212,37.066,72.521,15.858
		c0,0,167.627,93.724,128.396-0.001c-4.757-29.529,161.683-31.906,170.004-98.482c4.757-34.478-67.765-13.076-67.765-13.076
		s59.444-20.21-1.187-28.533c-16.646,0,35.666-185.461-211.616-52.31C84.623-17.443-18.808-53.109-18.808-53.109
		s-66.773,11.556-72.52,21.398C-97.073-21.869-84.194-18.632-84.194-18.632z"/>
	<path style="display:inline;fill:#00C0C0;" d="M-64.903-29.154c0,0-194.976-54.688-153.959,52.309c0,0-75.49,38.042,42.206,46.365
		c0,0-54.686,40.421,43.988,36.854c0,0,49.931,90.354,152.172,33.882c0,0,20.212,37.067,72.521,15.857
		c0,0,167.627,93.726,128.396-0.001c-4.758-29.527,161.682-31.906,170.006-98.481c4.755-34.477-67.767-13.078-67.767-13.078
		s59.444-20.209-1.187-28.532c-16.646,0,35.666-185.46-211.616-52.31C103.913-27.965,0.482-63.631,0.482-63.631
		s-66.773,11.557-72.52,21.398C-77.783-32.391-64.903-29.154-64.903-29.154z"/>
</g>
<g id="swamp" style="display:none;">
	<linearGradient id="SVGID_7_" gradientUnits="userSpaceOnUse" x1="201.7324" y1="-112.2656" x2="-73.9991" y2="193.0294">
		<stop  offset="0.6707" style="stop-color:#00C5FB"/>
		<stop  offset="1" style="stop-color:#0090D4"/>
	</linearGradient>
	<path style="display:inline;fill:url(#SVGID_7_);" d="M-73.119-23.058c0,0-191.736-53.778-151.4,51.44
		c0,0-74.237,37.411,41.504,45.595c0,0-53.777,39.75,43.257,36.243c0,0,49.102,88.853,149.645,33.319
		c0,0,19.875,36.449,71.315,15.595c0,0,164.844,92.167,126.264-0.003c-4.678-29.037,158.996-31.377,167.18-96.846
		c4.678-33.903-66.639-12.859-66.639-12.859s58.456-19.875-1.168-28.059c-16.367,0,35.074-182.379-208.1-51.439
		C92.894-21.89-8.818-56.962-8.818-56.962s-65.665,11.366-71.315,21.043C-85.784-26.241-73.119-23.058-73.119-23.058z"/>
</g>
<g id="roseaux" style="display:none;">
</g>
<g id="lilies" style="display:none;">
</g>
<g id="DUCK">
	<path style="fill:#FFFFFF;stroke:#262626;stroke-miterlimit:10;" d="M54.328,15.749c-1.186-7.24-4.693-16.01-13.021-15.059
		c-0.507-0.084-1.017-0.138-1.531-0.167c-1.541-0.088-3.107,0.073-4.64,0.491c-0.512,0.141-1.02,0.308-1.521,0.508
		c-6.779,3.479-8.532,8.74-7.253,16.16c-0.137,0.452-0.319,0.913-0.547,1.345c-0.909,1.728-2.527,3.012-4.7,1.595
		c-2.473-1.608,2.007-4.453-1.084-6.175c-1.843-1.024-2.195,0.497-2.893,1.755c-0.953,1.719-2.019,2.653-4.044,3.053
		c3.776-0.293,5.763-7.602,1.029-7.469c-2.132,0.059-1.698,0.93-1.972,2.861c-0.205,1.446-0.465,2.342-1.134,3.691
		c-1.229-0.326-1.939-2.042-3.207-2.771c-1.336-0.768-2.137-0.745-3.736-0.671c-0.042,0.634-0.014,1.29,0.007,1.947
		c0.02,0.655,0.034,1.313-0.043,1.958c-0.876,2.744-2.628,5.869-3.286,9.052c-0.11,0.53-0.192,1.063-0.252,1.603
		C0.533,36.567,4.04,40.074,9.118,43.7c0.424,0.25,0.842,0.487,1.237,0.714c0.389,0.229,0.755,0.446,1.083,0.655
		c4.997,3.133,10.335,5.419,16.167,6.387c0.648,0.108,1.302,0.199,1.962,0.274c11.301,2.373,21.822-2.888,20.222-15.184
		c0.044-0.468,0.085-0.936,0.125-1.405c0.121-1.406,0.237-2.828,0.424-4.281c0.24-1.868,0.717-3.527,1.252-5.152
		c0.179-0.543,0.364-1.081,0.543-1.625c2.763-3.299,1.01-6.807,2.689-9.623"/>
	<path style="fill:none;stroke:#262626;stroke-miterlimit:10;" d="M35.168,33.498c0.35-3.824-3.835-7.896-7.223-8.719
		c-6.524-1.584-3.453,4.958-5.771,8.181c-0.994-1.91-4.523-6.32-6.959-5.818c-2.911,0.601-2.736,4.942-2.879,7.436
		c-2.002-0.217-3.588-0.592-4.782,1.311c-1.272,2.027-0.967,4.899,0.63,6.488c2.528,2.518,7.069,5.665,10.56,6.432
		c3.591,0.793,7.243-2.523,9.19-5.227"/>
	<path style="fill:#F4CA19;" d="M60.39,14.806c-3.74-1.036-9.001-2.789-12.433,0.451c-0.342,0.16-0.682,0.336-1.019,0.527
		c-0.508,0.291-0.999,0.592-1.469,0.907c-0.472,0.315-0.923,0.642-1.354,0.985c-3.248,3.107-5.002,4.861-5.067,9.567
		c-0.016,0.583,0.004,1.185,0.065,1.81c0.586,6.031,8.437,6.881,13.567,6.637c5.456-0.263,12.104-2.232,13.875-7.696
		c0.197-0.608,0.334-1.258,0.402-1.954c0.214-7.009-5.047-10.517-10.209-12.324"/>
	<path style="fill:none;stroke:#ED8629;stroke-miterlimit:10;" d="M51.657,17.146c6.746,0.13,6.746,5.392,5.98,9.409"/>
	<ellipse style="fill:#3A3938;" cx="46.238" cy="11.765" rx="1.425" ry="2.379"/>
	<ellipse style="fill:#3A3938;" cx="49.745" cy="11.765" rx="1.425" ry="2.379"/>
</g>
<g id="Layer_28" style="display:none;">
	<g style="display:inline;">
	</g>
</g>
<g id="myFrog" style="display:none;">
	<g id="legs" style="display:inline;">
	</g>
	<g id="Layer_30" style="display:inline;">
	</g>
	<g id="body" style="display:inline;">
	</g>
	<g id="shoulders" style="display:inline;">
	</g>
	<g id="bill" style="display:inline;">
	</g>
	<g id="headGreen" style="display:inline;">
	</g>
	<g id="headBottom" style="display:inline;">
	</g>
	<g id="mouth" style="display:inline;">
	</g>
	<g id="tongue" style="display:inline;">
	</g>
	<g id="eyes" style="display:inline;">
	</g>
	<g id="nose" style="display:inline;">
	</g>
	<g id="shadow" style="display:inline;">
	</g>
	<g id="armL" style="display:inline;">
	</g>
	<g id="armR" style="display:inline;">
	</g>
</g>
<g id="Layer_31" style="display:none;">
</g>
</svg>
