<?xml version="1.0" encoding="iso-8859-1"?>
<!-- Generator: Adobe Illustrator 16.2.1, SVG Export Plug-In . SVG Version: 6.00 Build 0)  -->
<!DOCTYPE svg PUBLIC "-//W3C//DTD SVG 1.1//EN" "http://www.w3.org/Graphics/SVG/1.1/DTD/svg11.dtd">
<svg version="1.1" xmlns="http://www.w3.org/2000/svg" xmlns:xlink="http://www.w3.org/1999/xlink" x="0px" y="0px"
	 width="53.368px" height="23.678px" viewBox="0 0 53.368 23.678" style="enable-background:new 0 0 53.368 23.678;"
	 xml:space="preserve">
<g id="legs" style="display:none;">
	<g style="display:inline;">
		<path style="fill:#00AF35;stroke:#0E0F0F;stroke-miterlimit:10;" d="M8.817,72.974c0,0-24.916-16.599-33.8-6.079
			C-33.867,77.416,2.37,86.813,2.37,86.813s-23.613,8.604-24.08,10.007c-0.468,1.403,12.926-2.855,12.926-2.855l-7.315,8.7
			l11.456-5.143l-4.141,9.819L13.92,84.429L8.817,72.974z"/>
		<path style="fill:#00AF35;stroke:#0E0F0F;stroke-miterlimit:10;" d="M45.347,72.974c0,0,24.916-16.599,33.8-6.079
			c8.885,10.521-27.353,19.917-27.353,19.917s23.613,8.604,24.08,10.007c0.468,1.403-12.926-2.855-12.926-2.855l7.315,8.7
			l-11.456-5.143l4.141,9.819L40.244,84.429L45.347,72.974z"/>
	</g>
</g>
<g id="Layer_30" style="display:none;">
	<g style="display:inline;">
		<path style="fill:#00AF35;stroke:#0E0F0F;stroke-miterlimit:10;" d="M22.246,100.794c6.542-10.521,4.303-46.29-4.582-35.77
			C8.78,75.545,2.37,116.971,2.37,116.971s-23.613,8.604-24.08,10.008c-0.468,1.402,12.926-2.855,12.926-2.855l-7.315,8.699
			l11.456-5.143l-4.141,9.818l22.704-22.91C13.92,114.588,15.703,111.315,22.246,100.794z"/>
		<path style="fill:#00AF35;stroke:#0E0F0F;stroke-miterlimit:10;" d="M33.952,100.794c-6.542-10.521-4.303-46.29,4.582-35.77
			c8.884,10.521,15.294,51.946,15.294,51.946s23.613,8.604,24.08,10.008c0.468,1.402-12.926-2.855-12.926-2.855l7.315,8.699
			l-11.456-5.143l4.141,9.818l-22.704-22.91C42.278,114.588,40.495,111.315,33.952,100.794z"/>
	</g>
</g>
<g id="body" style="display:none;">
	<path style="display:inline;fill:#00AF35;stroke:#0E0F0F;stroke-miterlimit:10;" d="M15.22,39.883c0,0-17.175,14.973-18.227,26.72
		c-0.614,6.856,0.643,12.876,7.105,16.526c4.611,2.604,11.872,4.003,22.994,3.638c26.71-0.877,29.458-7.89,30.013-18.937
		s-17.19-27.368-17.19-27.368L15.22,39.883"/>
</g>
<g id="shoulders" style="display:none;">
	<path id="XMLID_2_" style="display:inline;fill:#007530;" d="M15.714,39.883c0,0-19.748,20.349-17.911,26.72
		c1.839,6.371,29.474,5.202,29.474,5.202s30.313,0.871,29.596-3.975c-0.717-4.846-3.892-15.459-16.893-27.368
		S15.714,39.883,15.714,39.883z"/>
</g>
<g id="bill" style="display:none;">
	<path style="display:inline;fill:#FFFFFF;stroke:#0B0C0C;stroke-miterlimit:10;" d="M4.099,83.129c0,0,4-31.43,22.117-31.08
		C44.335,52.4,49.51,82.684,50.055,82.359c0.546-0.325-1.98,3.882-22.962,4.408C6.11,87.293,4.099,83.129,4.099,83.129z"/>
</g>
<g id="headGreen" style="display:none;">
	<path style="display:inline;fill:#00AE37;stroke:#020202;stroke-miterlimit:10;" d="M-4.644,42.582c0,0,0.936-31.911,30.859-31.969
		c29.925-0.059,30.86,30.801,30.86,30.801s-2.338,14.729-30.86,14.962C-2.306,56.609-4.644,42.582-4.644,42.582z"/>
</g>
<g id="headBottom" style="display:none;">
	<path style="display:inline;fill:#FFFFFF;stroke:#020202;stroke-miterlimit:10;" d="M4.101,52.207c0,0,3.412-29.964,22.817-29.029
		c19.404,0.935,21.976,27.586,21.976,27.586s-5.145,5.845-21.977,5.845S4.101,52.207,4.101,52.207z"/>
</g>
<g id="mouth" style="display:none;">
	<path style="display:inline;fill:#8E1010;stroke:#020202;stroke-miterlimit:10;" d="M9.851,35.101c0,0,3.087-11.622,16.021-11.923
		s18.463,11.923,18.463,11.923s-6.08,10.754-17.242,10.754C15.93,45.854,9.851,35.101,9.851,35.101z"/>
</g>
<g id="tongue" style="display:none;">
	<path style="display:inline;fill:#FF0600;" d="M14.526,39.075c0,0,3.975-7.013,13.093-6.78c9.117,0.233,12.624,6.78,12.624,6.78
		s-4.441,5.377-12.857,5.377C18.969,44.452,14.526,39.075,14.526,39.075z"/>
</g>
<g id="eyes">
	<g>
		<ellipse style="fill:#FFFFFF;stroke:#000000;stroke-miterlimit:10;" cx="10.903" cy="11.839" rx="10.403" ry="11.339"/>
		<ellipse style="fill:#FFFFFF;stroke:#000000;stroke-miterlimit:10;" cx="42.464" cy="11.839" rx="10.404" ry="11.339"/>
		<circle cx="13.92" cy="11.839" r="5.103"/>
		<circle cx="39.915" cy="11.839" r="5.103"/>
		<circle style="fill:#F7F7F7;" cx="15.22" cy="10.829" r="2.359"/>
		<circle style="fill:#F7F7F7;" cx="38.904" cy="10.829" r="2.359"/>
	</g>
</g>
<g id="nose" style="display:none;">
	<g style="display:inline;">
		<line style="fill:none;stroke:#000000;stroke-miterlimit:10;" x1="24.434" y1="21.892" x2="23.206" y2="20.226"/>
		<line style="fill:none;stroke:#000000;stroke-miterlimit:10;" x1="28.379" y1="21.892" x2="29.168" y2="20.226"/>
	</g>
</g>
<g id="shadow" style="display:none;">
	<path style="display:inline;opacity:0.4;fill:#020202;" d="M-4.41,39.883c0,0,3.741,13.92,31.912,13.745s29.32-15.257,29.32-15.257
		l0.283,3.042c0,0-3.815,14.671-30.057,15.196c-26.242,0.525-31.692-12.8-31.692-12.8L-4.41,39.883z"/>
</g>
<g id="armL" style="display:none;">
	<path style="display:inline;fill:#007530;stroke:#000000;stroke-miterlimit:10;" d="M0.733,63.354c0,0,7.014,14.063,3.741,27.155
		c0,0,3.74-1.403,4.441-3.975l0.936,7.247c0,0,2.338-2.338,2.806-5.845c0.467-3.507,2.805,4.675,3.039,5.845
		c0.233,1.169,3.975-2.805-6.312-24.313l-2.572-6.114"/>
</g>
<g id="armR" style="display:none;">
	<path style="display:inline;fill:#00712A;stroke:#000000;stroke-miterlimit:10;" d="M52.317,63.354c0,0-7.013,14.063-3.74,27.155
		c0,0-3.74-1.403-4.441-3.975L43.2,93.781c0,0-2.338-2.338-2.806-5.845c-0.467-3.507-2.806,4.675-3.039,5.845
		c-0.233,1.169-3.975-2.805,6.312-24.313l2.572-6.114"/>
</g>
</svg>
