<?xml version="1.0" encoding="iso-8859-1"?>
<!-- Generator: Adobe Illustrator 16.2.1, SVG Export Plug-In . SVG Version: 6.00 Build 0)  -->
<!DOCTYPE svg PUBLIC "-//W3C//DTD SVG 1.1//EN" "http://www.w3.org/Graphics/SVG/1.1/DTD/svg11.dtd">
<svg version="1.1" xmlns="http://www.w3.org/2000/svg" xmlns:xlink="http://www.w3.org/1999/xlink" x="0px" y="0px"
	 width="62.723px" height="46.766px" viewBox="0 0 62.723 46.766" style="enable-background:new 0 0 62.723 46.766;"
	 xml:space="preserve">
<g id="legs" style="display:none;">
	<g style="display:inline;">
		<path style="fill:#00AF35;stroke:#0E0F0F;stroke-miterlimit:10;" d="M13.962,62.862c0,0-24.916-16.599-33.8-6.079
			C-28.723,67.304,7.515,76.701,7.515,76.701s-23.613,8.604-24.08,10.007c-0.468,1.403,12.926-2.855,12.926-2.855l-7.315,8.7
			l11.456-5.143l-4.141,9.819l22.704-22.911L13.962,62.862z"/>
		<path style="fill:#00AF35;stroke:#0E0F0F;stroke-miterlimit:10;" d="M50.491,62.862c0,0,24.916-16.599,33.8-6.079
			c8.885,10.521-27.353,19.917-27.353,19.917s23.613,8.604,24.08,10.007c0.468,1.403-12.926-2.855-12.926-2.855l7.315,8.7
			l-11.456-5.143l4.141,9.819L45.389,74.317L50.491,62.862z"/>
	</g>
</g>
<g id="Layer_30" style="display:none;">
	<g style="display:inline;">
		<path style="fill:#00AF35;stroke:#0E0F0F;stroke-miterlimit:10;" d="M27.391,90.682c6.542-10.521,4.303-46.29-4.582-35.77
			c-8.884,10.521-15.294,51.946-15.294,51.946s-23.613,8.604-24.08,10.008c-0.468,1.402,12.926-2.855,12.926-2.855l-7.315,8.699
			l11.456-5.143l-4.141,9.818l22.704-22.91C19.064,104.476,20.848,101.203,27.391,90.682z"/>
		<path style="fill:#00AF35;stroke:#0E0F0F;stroke-miterlimit:10;" d="M39.097,90.682c-6.542-10.521-4.303-46.29,4.582-35.77
			c8.884,10.521,15.294,51.946,15.294,51.946s23.613,8.604,24.08,10.008c0.468,1.402-12.926-2.855-12.926-2.855l7.315,8.699
			l-11.456-5.143l4.141,9.818l-22.704-22.91C47.423,104.476,45.64,101.203,39.097,90.682z"/>
	</g>
</g>
<g id="body" style="display:none;">
	<path style="display:inline;fill:#00AF35;stroke:#0E0F0F;stroke-miterlimit:10;" d="M20.364,29.771c0,0-17.175,14.973-18.227,26.72
		C1.523,63.347,2.78,69.367,9.243,73.017c4.611,2.604,11.872,4.003,22.994,3.638c26.71-0.877,29.458-7.89,30.013-18.937
		S45.06,30.351,45.06,30.351L20.364,29.771"/>
</g>
<g id="shoulders" style="display:none;">
	<path id="XMLID_2_" style="display:inline;fill:#007530;" d="M20.858,29.771c0,0-19.748,20.349-17.911,26.72
		c1.839,6.371,29.474,5.202,29.474,5.202s30.313,0.871,29.596-3.975c-0.717-4.846-3.892-15.459-16.893-27.368
		S20.858,29.771,20.858,29.771z"/>
</g>
<g id="bill" style="display:none;">
	<path style="display:inline;fill:#FFFFFF;stroke:#0B0C0C;stroke-miterlimit:10;" d="M9.243,73.017c0,0,4-31.43,22.117-31.08
		c18.119,0.351,23.294,30.634,23.839,30.309c0.546-0.325-1.98,3.882-22.962,4.408C11.255,77.181,9.243,73.017,9.243,73.017z"/>
</g>
<g id="headGreen">
	<path style="fill:#00AE37;stroke:#020202;stroke-miterlimit:10;" d="M0.501,32.469c0,0,0.936-31.911,30.859-31.969
		c29.925-0.059,30.86,30.801,30.86,30.801s-2.338,14.729-30.86,14.962C2.839,46.497,0.501,32.469,0.501,32.469z"/>
</g>
<g id="headBottom" style="display:none;">
	<path style="display:inline;fill:#FFFFFF;stroke:#020202;stroke-miterlimit:10;" d="M9.245,42.094c0,0,3.412-29.964,22.817-29.029
		C51.467,14,54.038,40.652,54.038,40.652s-5.145,5.845-21.977,5.845S9.245,42.094,9.245,42.094z"/>
</g>
<g id="mouth" style="display:none;">
	<path style="display:inline;fill:#8E1010;stroke:#020202;stroke-miterlimit:10;" d="M14.995,24.988c0,0,3.087-11.622,16.021-11.923
		s18.463,11.923,18.463,11.923s-6.08,10.754-17.242,10.754C21.074,35.742,14.995,24.988,14.995,24.988z"/>
</g>
<g id="tongue" style="display:none;">
	<path style="display:inline;fill:#FF0600;" d="M19.671,28.963c0,0,3.975-7.013,13.093-6.78c9.117,0.233,12.624,6.78,12.624,6.78
		S40.946,34.34,32.53,34.34C24.113,34.34,19.671,28.963,19.671,28.963z"/>
</g>
<g id="eyes" style="display:none;">
	<g style="display:inline;">
		<ellipse style="fill:#FFFFFF;stroke:#000000;stroke-miterlimit:10;" cx="16.048" cy="1.727" rx="10.403" ry="11.339"/>
		<ellipse style="fill:#FFFFFF;stroke:#000000;stroke-miterlimit:10;" cx="47.609" cy="1.727" rx="10.404" ry="11.339"/>
		<circle cx="19.064" cy="1.727" r="5.103"/>
		<circle cx="45.059" cy="1.727" r="5.103"/>
		<circle style="fill:#F7F7F7;" cx="20.365" cy="0.716" r="2.359"/>
		<circle style="fill:#F7F7F7;" cx="44.048" cy="0.716" r="2.359"/>
	</g>
</g>
<g id="nose" style="display:none;">
	<g style="display:inline;">
		<line style="fill:none;stroke:#000000;stroke-miterlimit:10;" x1="29.578" y1="11.779" x2="28.351" y2="10.113"/>
		<line style="fill:none;stroke:#000000;stroke-miterlimit:10;" x1="33.523" y1="11.779" x2="34.312" y2="10.113"/>
	</g>
</g>
<g id="shadow" style="display:none;">
	<path style="display:inline;opacity:0.4;fill:#020202;" d="M0.734,29.771c0,0,3.741,13.92,31.912,13.745s29.32-15.257,29.32-15.257
		l0.283,3.042c0,0-3.815,14.671-30.057,15.196c-26.242,0.525-31.692-12.8-31.692-12.8L0.734,29.771z"/>
</g>
<g id="armL" style="display:none;">
	<path style="display:inline;fill:#007530;stroke:#000000;stroke-miterlimit:10;" d="M5.878,53.241c0,0,7.014,14.063,3.741,27.155
		c0,0,3.74-1.403,4.441-3.975l0.936,7.247c0,0,2.338-2.338,2.806-5.845c0.467-3.507,2.805,4.675,3.039,5.845
		c0.233,1.169,3.975-2.805-6.312-24.313l-2.572-6.114"/>
</g>
<g id="armR" style="display:none;">
	<path style="display:inline;fill:#00712A;stroke:#000000;stroke-miterlimit:10;" d="M57.462,53.241c0,0-7.013,14.063-3.74,27.155
		c0,0-3.74-1.403-4.441-3.975l-0.936,7.247c0,0-2.338-2.338-2.806-5.845c-0.467-3.507-2.806,4.675-3.039,5.845
		c-0.233,1.169-3.975-2.805,6.312-24.313l2.572-6.114"/>
</g>
</svg>
