<?xml version="1.0" encoding="iso-8859-1"?>
<!-- Generator: Adobe Illustrator 16.2.1, SVG Export Plug-In . SVG Version: 6.00 Build 0)  -->
<!DOCTYPE svg PUBLIC "-//W3C//DTD SVG 1.1//EN" "http://www.w3.org/Graphics/SVG/1.1/DTD/svg11.dtd">
<svg version="1.1" xmlns="http://www.w3.org/2000/svg" xmlns:xlink="http://www.w3.org/1999/xlink" x="0px" y="0px"
	 width="79.408px" height="48.836px" viewBox="0 0 79.408 48.836" style="enable-background:new 0 0 79.408 48.836;"
	 xml:space="preserve">
<g id="Layer_26" style="display:none;">
	<g style="display:inline;">
		<radialGradient id="SVGID_1_" cx="-41.3564" cy="9.332" r="743.1027" gradientUnits="userSpaceOnUse">
			<stop  offset="0.2798" style="stop-color:#D6EEFA"/>
			<stop  offset="0.4728" style="stop-color:#88D4FC"/>
			<stop  offset="0.6369" style="stop-color:#4DC0FE"/>
			<stop  offset="0.7572" style="stop-color:#28B4FF"/>
			<stop  offset="0.8209" style="stop-color:#1AAFFF"/>
		</radialGradient>
		<rect x="-460.397" y="-719.173" style="fill:url(#SVGID_1_);" width="803.364" height="919.821"/>
		<radialGradient id="SVGID_2_" cx="-41.4492" cy="9.5908" r="839.0167" gradientUnits="userSpaceOnUse">
			<stop  offset="0.2538" style="stop-color:#D6EEFA"/>
			<stop  offset="0.459" style="stop-color:#88D4FC"/>
			<stop  offset="0.6336" style="stop-color:#4DC0FE"/>
			<stop  offset="0.7615" style="stop-color:#28B4FF"/>
			<stop  offset="0.8293" style="stop-color:#1AAFFF"/>
		</radialGradient>
		<polygon style="fill:url(#SVGID_2_);" points="48.397,193.931 83.751,193.931 -44.878,-96.902 -44.801,-96.903 111.171,193.931 
			152.816,193.931 -42.967,-95.095 186.084,193.931 239.332,193.931 -42.597,-95.821 284.084,193.931 359.773,193.931 
			-42.786,-96.844 383.362,166.284 383.362,110.699 -43.482,-97.936 383.362,74.162 383.362,26.938 -41.742,-98.009 383.362,-5.085 
			383.362,-48.101 -41.444,-98.696 383.362,-78.184 383.362,-119.938 -44.501,-99.329 -44.462,-99.381 383.362,-150.274 
			383.362,-193.36 -43.472,-100.11 383.362,-225.5 383.362,-272.838 -44.9,-100.213 -44.861,-100.303 -44.908,-100.213 
			-45.137,-100.126 -45.115,-100.209 383.362,-309.583 383.362,-365.365 -45.578,-100.529 -45.578,-100.535 383.362,-410.281 
			383.362,-481.635 -44.477,-102.194 383.362,-541.811 383.362,-643.24 -46.338,-101 -46.358,-101.083 382.041,-733.388 
			383.362,-735.334 383.362,-782.24 318.303,-782.24 312.624,-771.647 -46.986,-101.027 -47.078,-101.171 254.192,-782.24 
			171.977,-782.24 -47.563,-101.343 115.716,-782.24 40.854,-782.24 -47.467,-106.284 -11.707,-782.24 -84.362,-782.24 
			-48.468,-104.225 -137.021,-782.24 -211.939,-782.24 -48.46,-100.371 -48.443,-100.364 -48.351,-99.946 -48.37,-99.949 
			-48.522,-100.398 -268.355,-782.24 -350.641,-782.24 -48.863,-99.946 -408.591,-770.795 -414.727,-782.24 -487.013,-782.24 
			-487.013,-745.891 -477.98,-732.559 -50.202,-101.089 -487.013,-652.269 -487.013,-549.021 -49.934,-99.857 -487.013,-487.454 
			-487.013,-414.816 -50.761,-99.751 -487.013,-369.058 -487.013,-312.223 -49.43,-98.384 -49.679,-98.301 -49.4,-98.365 
			-49.213,-98.279 -49.4,-98.174 -487.013,-274.521 -487.013,-226.238 -49.533,-97.711 -49.679,-97.577 -487.013,-193.067 
			-487.013,-149.129 -51.036,-97.256 -487.013,-118.197 -487.013,-75.55 -50.553,-96.634 -487.013,-44.581 -487.013,-0.58 
			-51.399,-95.805 -487.013,32.314 -487.013,80.646 -50.96,-95.189 -487.013,118.052 -487.013,175.017 -50.782,-94.386 
			-449.778,193.931 -374.554,193.931 -48.087,-95.681 -329.757,193.931 -276.829,193.931 -48.255,-94.595 -243.598,193.931 
			-202.155,193.931 -46.966,-95.584 -174.928,193.931 -139.695,193.931 -46.24,-96.057 -46.158,-95.971 -46.236,-96.078 
			-46.116,-96.412 -46.062,-96.367 -46.158,-95.971 -115.587,193.931 -83.52,193.931 -45.949,-93.843 -61.128,193.931 
			-29.983,193.931 -45.09,-91.413 -7.785,193.931 24.376,193.931 -45.222,-96.33 -45.216,-96.323 		"/>
	</g>
</g>
<g id="Layer_27" style="display:none;">
	<g style="display:inline;">
		
			<linearGradient id="SVGID_3_" gradientUnits="userSpaceOnUse" x1="-567.8174" y1="-366.6514" x2="-567.8174" y2="-132.0941" gradientTransform="matrix(-1 0 0 1 -385.0635 0)">
			<stop  offset="0" style="stop-color:#F5F9C7"/>
			<stop  offset="0.5215" style="stop-color:#CCDD4B"/>
			<stop  offset="0.7263" style="stop-color:#598923"/>
			<stop  offset="1" style="stop-color:#528421"/>
		</linearGradient>
		<ellipse style="fill:url(#SVGID_3_);" cx="182.753" cy="-120.046" rx="222.67" ry="127.295"/>
		
			<linearGradient id="SVGID_4_" gradientUnits="userSpaceOnUse" x1="-431.0962" y1="-327.521" x2="-431.0962" y2="-70.5599" gradientTransform="matrix(-0.9576 0.0523 0.0545 0.9985 -368.8127 2.0471)">
			<stop  offset="0" style="stop-color:#F5F9C7"/>
			<stop  offset="0.4663" style="stop-color:#CCDD4B"/>
			<stop  offset="0.5207" style="stop-color:#C1D547"/>
			<stop  offset="0.6159" style="stop-color:#A4C03D"/>
			<stop  offset="0.7396" style="stop-color:#769E2D"/>
			<stop  offset="0.8081" style="stop-color:#598923"/>
			<stop  offset="1" style="stop-color:#528421"/>
		</linearGradient>
		<path style="fill:url(#SVGID_4_);" d="M-263.291-87.996c2.764,64.704,140.42,107.727,307.466,96.09
			C211.222-3.544,344.397-65.43,341.633-130.134c-2.763-64.7-140.42-107.721-307.464-96.085
			C-132.878-214.582-266.054-152.695-263.291-87.996z"/>
	</g>
	<g style="display:inline;">
		
			<linearGradient id="SVGID_5_" gradientUnits="userSpaceOnUse" x1="-589.0967" y1="-166.48" x2="-589.0967" y2="68.0777" gradientTransform="matrix(-1 0 0 1 -385.0635 0)">
			<stop  offset="0" style="stop-color:#F5F9C7"/>
			<stop  offset="0.5215" style="stop-color:#CCDD4B"/>
			<stop  offset="0.7263" style="stop-color:#598923"/>
			<stop  offset="1" style="stop-color:#528421"/>
		</linearGradient>
		<path style="fill:url(#SVGID_5_);" d="M-18.638,80.126c0,70.304,99.688,127.295,222.669,127.295
			c122.977,0,222.672-56.991,222.672-127.295S327.008-47.167,204.031-47.167C81.051-47.167-18.638,9.822-18.638,80.126z"/>
		
			<linearGradient id="SVGID_6_" gradientUnits="userSpaceOnUse" x1="-441.8765" y1="-126.4839" x2="-441.8765" y2="130.4772" gradientTransform="matrix(-0.9576 0.0523 0.0545 0.9985 -368.8127 2.0471)">
			<stop  offset="0" style="stop-color:#F5F9C7"/>
			<stop  offset="0.4663" style="stop-color:#CCDD4B"/>
			<stop  offset="0.5207" style="stop-color:#C1D547"/>
			<stop  offset="0.6159" style="stop-color:#A4C03D"/>
			<stop  offset="0.7396" style="stop-color:#769E2D"/>
			<stop  offset="0.8081" style="stop-color:#598923"/>
			<stop  offset="1" style="stop-color:#528421"/>
		</linearGradient>
		<path style="fill:url(#SVGID_6_);" d="M-242.011,112.176c2.764,64.704,140.42,107.727,307.466,96.09
			C232.5,196.628,365.676,134.742,362.912,70.038c-2.764-64.7-140.42-107.722-307.465-96.086
			C-111.599-14.41-244.774,47.478-242.011,112.176z"/>
	</g>
</g>
<g id="Layer_29" style="display:none;">
</g>
<g id="Layer_25" style="display:none;">
	<path style="display:inline;fill:#848484;" d="M-326.777-29.228c0,0-132.457,248.685,252.936,132.991
		C311.552-11.929-326.777-29.228-326.777-29.228l324.425,138.74c0,0,378.789,106.532,219.206-124.949"/>
	<path style="display:inline;fill:#848484;" d="M-350.158-46.858c0,0-128.601-156.798,136.785-102.439
		c25.721,6.426,162.506-53.79,201.085,15.482c0,0,149.45-98.944,195.728-23.603c46.277,75.339,20.184,67.066,20.184,67.066
		s111.968,26.705,84.547,56.453c-27.419,29.748-55.532,47.188-55.532,47.188s-97.619,40.248-102.296,50.771
		c-4.676,10.522,16.369,84.177-68.976,74.823c-85.346-9.354-142.631-38.58-142.631-38.58S-95.768,77.491-114,73.41
		c-18.23-4.081-102.882,70.147-157.245-15.197C-325.607-27.132-442.518-20.99-350.158-46.858z"/>
</g>
<g id="Layer_20" style="display:none;">
	<path style="display:inline;fill:#9CDA49;" d="M-324.777-38.228c0,0-132.457,248.685,252.936,132.991
		C313.552-20.929-324.777-38.228-324.777-38.228l324.425,138.74c0,0,378.789,106.532,219.206-124.949"/>
</g>
<g id="Layer_19" style="display:none;">
	<path style="display:inline;fill:#5FAF84;" d="M-348.158-55.858c0,0-128.601-156.798,136.785-102.439
		c25.721,6.425,162.506-53.79,201.085,15.483c0,0,149.45-98.944,195.728-23.604c46.277,75.339,20.184,67.066,20.184,67.066
		s111.968,26.705,84.547,56.453c-27.419,29.748-55.532,47.188-55.532,47.188s-97.619,40.248-102.296,50.771
		c-4.676,10.522,16.369,84.177-68.976,74.823c-85.346-9.354-142.631-38.58-142.631-38.58S-93.768,68.491-112,64.41
		c-18.231-4.081-102.883,70.147-157.246-15.197C-323.607-36.132-440.518-29.99-348.158-55.858z"/>
</g>
<g id="Layer_17" style="display:none;">
	<path style="display:inline;fill:#00C0C0;" d="M-195.558-118.216c0,0-194.975-54.689-153.959,52.308
		c0,0-75.49,38.044,42.206,46.365c0,0-54.686,40.422,43.988,36.856c0,0,49.931,90.353,152.172,33.881
		c0,0,20.212,37.066,72.521,15.858c0,0,167.627,93.724,128.396-0.001C85.01,37.522,251.449,35.146,259.771-31.431
		c4.757-34.478-67.765-13.076-67.765-13.076s59.444-20.21-1.187-28.533c-16.646,0,35.666-185.461-211.616-52.31
		c-5.944,8.323-109.375-27.343-109.375-27.343s-66.773,11.556-72.52,21.398C-208.437-121.453-195.558-118.216-195.558-118.216z"/>
	<path style="display:inline;fill:#00C0C0;" d="M-176.268-128.738c0,0-194.976-54.688-153.959,52.309
		c0,0-75.49,38.042,42.206,46.365c0,0-54.686,40.421,43.988,36.854c0,0,49.931,90.354,152.172,33.882
		c0,0,20.212,37.067,72.521,15.857c0,0,167.627,93.726,128.396-0.001c-4.758-29.527,161.682-31.906,170.006-98.481
		c4.755-34.477-67.767-13.078-67.767-13.078s59.444-20.209-1.187-28.532c-16.646,0,35.666-185.46-211.616-52.31
		c-5.944,8.323-109.375-27.343-109.375-27.343s-66.773,11.557-72.52,21.398C-189.147-131.975-176.268-128.738-176.268-128.738z"/>
</g>
<g id="swamp" style="display:none;">
	<linearGradient id="SVGID_7_" gradientUnits="userSpaceOnUse" x1="90.3682" y1="-211.8496" x2="-185.3633" y2="93.4454">
		<stop  offset="0.6707" style="stop-color:#00C5FB"/>
		<stop  offset="1" style="stop-color:#0090D4"/>
	</linearGradient>
	<path style="display:inline;fill:url(#SVGID_7_);" d="M-184.483-122.642c0,0-191.736-53.778-151.4,51.44
		c0,0-74.237,37.411,41.504,45.595c0,0-53.777,39.75,43.257,36.243c0,0,49.102,88.853,149.645,33.319
		c0,0,19.875,36.449,71.315,15.595c0,0,164.844,92.167,126.264-0.003c-4.678-29.037,158.996-31.377,167.18-96.846
		c4.678-33.903-66.639-12.859-66.639-12.859s58.456-19.875-1.168-28.059c-16.367,0,35.074-182.379-208.1-51.439
		c-5.846,8.182-107.558-26.891-107.558-26.891s-65.665,11.366-71.315,21.043C-197.148-125.825-184.483-122.642-184.483-122.642z"/>
</g>
<g id="roseaux" style="display:none;">
</g>
<g id="lilies">
	<path style="fill:#72C92A;stroke:#6CB702;stroke-miterlimit:10;" d="M24.199,19.404c-7.01-0.492-17.798-10.142-22.688-0.535
		c-3.22,6.323,1.528,23.098,10.348,15.127c0.241,4.334-0.442,8.377,3.138,11.395c3.403,2.867,8.038,3.117,12.196,2.874
		c1.06-3.295,0.179-14.591,3.017-16.284c6.283-3.753,2.938,9.918,3.264,12.349c4.462,0.389,25.216,6.415,21.105-5.635
		c-1.386-4.068-9.159-10.989,0.651-7.124c6.465,2.549,13.171,5.083,19.375-0.404c4.495-3.973,5.381-8.792,3.069-13.986
		c-1.7-3.822-6.608-10.047-11.485-9.215c-5.652,0.964-9.492,9.744-15.421,10.595c-4.691,0.671-8.812-4.478-13.846-4.416
		c-4.387,0.055-4.99,1.331-8.02,3.521c-2.193,1.586-2.527,3.035-6.018,1.739"/>
	<path style="fill:none;stroke:#6CB702;stroke-miterlimit:10;" d="M0.525,24.666c4.191,0,8.461-0.234,12.648,0
		c3.346,0.188,5.251,1.785,8.396,2.192"/>
	<path style="fill:none;stroke:#6CB702;stroke-miterlimit:10;" d="M19.815,47.463c1.087-2.729-0.083-6.442,0.406-9.545
		c0.416-2.646,1.841-5.271,3.102-7.553"/>
	<path style="fill:none;stroke:#6CB702;stroke-miterlimit:10;" d="M46.997,45.271c3.662-9.344-4.332-14.315-8.768-21.044"/>
	<path style="fill:none;stroke:#6CB702;stroke-miterlimit:10;" d="M78.563,20.72c-10.886,0-21.198,2.195-32.004,2.192"/>
	<path style="fill:#F4BDEF;stroke:#E21795;stroke-miterlimit:10;" d="M34.807,27.734c0,0-41.785-1.341,0-23.236
		C34.807,4.498,76.593,21.289,34.807,27.734z"/>
	<path style="fill:#F4BDEF;stroke:#E21795;stroke-miterlimit:10;" d="M35.346,27.734c0,0-27.754-1.341,0-23.236
		C35.346,4.498,63.097,21.289,35.346,27.734z"/>
	<path style="fill:#F4BDEF;stroke:#E21795;stroke-miterlimit:10;" d="M35.599,27.734c0,0-15.345-1.55,0-26.859
		C35.599,0.875,50.943,20.282,35.599,27.734z"/>
</g>
<g id="DUCK" style="display:none;">
</g>
<g id="Layer_28" style="display:none;">
	<g style="display:inline;">
		
			<linearGradient id="SVGID_8_" gradientUnits="userSpaceOnUse" x1="-606.4893" y1="-39.1982" x2="-666.0015" y2="207.3546" gradientTransform="matrix(-1 0 0 1 -544.249 0)">
			<stop  offset="0" style="stop-color:#A2D337"/>
			<stop  offset="0.908" style="stop-color:#31671C"/>
		</linearGradient>
		<path style="fill:url(#SVGID_8_);" d="M69.725-16.381c30.432,41.159,44.188,96.501,50.37,135.687
			c7.71,49.775,9.468,101.697,5.225,154.328c-0.008,0.1-0.041,0.187-0.096,0.238c-0.037,0.045-0.083,0.065-0.13,0.065
			c-0.017,0.003-0.037,0.003-0.059,0l-8.801-2.502c-0.068-0.022-0.124-0.075-0.165-0.156c-0.036-0.077-0.053-0.178-0.041-0.271
			c5.56-50.218,5.289-102.246-0.786-150.448C108.115,64.907,92.603,17.223,69.725-16.381z"/>
		<g>
			<linearGradient id="SVGID_9_" gradientUnits="userSpaceOnUse" x1="47.9648" y1="-169.9688" x2="-73.5158" y2="533.2188">
				<stop  offset="0" style="stop-color:#8CCE17"/>
				<stop  offset="0.908" style="stop-color:#31671C"/>
			</linearGradient>
			<path style="fill:url(#SVGID_9_);" d="M33.713-3.825C9.696,24.98-7.607,68.845-17.715,126.567
				c-8.008,47.064-11.057,97.14-9.064,148.818c0.004,0.092,0.037,0.184,0.088,0.245c0.041,0.05,0.093,0.077,0.146,0.081
				c0.016,0,0.03-0.002,0.044-0.004l6.102-1.053c0.143-0.018,0.244-0.2,0.233-0.397c-3.021-50.77-1.021-100.138,5.937-146.73
				C-5.407,70.233,10.552,25.629,33.713-3.825z"/>
			
				<linearGradient id="SVGID_10_" gradientUnits="userSpaceOnUse" x1="79.0049" y1="-130.1685" x2="30.4964" y2="166.0423" gradientTransform="matrix(0.9897 -0.1432 0.1483 1.0247 -55.3808 -14.6238)">
				<stop  offset="0" style="stop-color:#A2D337"/>
				<stop  offset="0.908" style="stop-color:#31671C"/>
			</linearGradient>
			<path style="fill:url(#SVGID_10_);" d="M16.273-9.108C-7.273,31.507-13.683,87.295-14.915,126.963
				c-1.416,48.619,2.584,99.429,11.89,151.004c0.022,0.108,0.066,0.197,0.128,0.26c0.047,0.04,0.101,0.062,0.152,0.054
				c0.017,0.001,0.031-0.005,0.05-0.004l6.991-2.913c0.13-0.059,0.201-0.269,0.16-0.487
				c-10.312-49.979-15.415-99.505-15.171-147.204C-10.336,71.569-1.235,23.86,16.273-9.108z"/>
			
				<linearGradient id="SVGID_11_" gradientUnits="userSpaceOnUse" x1="275.4307" y1="-72.5693" x2="325.8174" y2="116.381" gradientTransform="matrix(-1.0419 0.3728 0.3369 0.9415 312.8051 -57.2945)">
				<stop  offset="0" style="stop-color:#A2D337"/>
				<stop  offset="0.908" style="stop-color:#31671C"/>
			</linearGradient>
			<path style="fill:url(#SVGID_11_);" d="M17.888-55.148C-2.91-9.074-12.38,48.537-9.488,111.69
				c2.848,58.346,14.06,116.499,33.325,172.842c0.036,0.102,0.098,0.187,0.169,0.235c0.062,0.045,0.131,0.051,0.193,0.034
				c0.01-0.003,12.646-6.282,12.646-6.282c0.074-0.039,0.126-0.114,0.147-0.211c0.022-0.101,0.012-0.214-0.027-0.313
				C16.375,224.93,2.911,167.334-1.978,111.437C-7.347,48.48-1.097-7.81,17.888-55.148z"/>
		</g>
		
			<linearGradient id="SVGID_12_" gradientUnits="userSpaceOnUse" x1="-628.3677" y1="-168.1133" x2="-741.067" y2="484.2436" gradientTransform="matrix(-0.9773 0.2117 0.2117 0.9773 -568.0508 131.2887)">
			<stop  offset="0" style="stop-color:#8CCE17"/>
			<stop  offset="0.908" style="stop-color:#31671C"/>
		</linearGradient>
		<path style="fill:url(#SVGID_12_);" d="M70.669,24.159c29.898,20.461,55.645,56.275,76.521,106.465
			c16.783,40.979,29.021,85.902,36.374,133.505c0.012,0.084-0.005,0.175-0.045,0.243c-0.033,0.054-0.081,0.093-0.135,0.109
			c-0.017,0.004-0.032,0.005-0.046,0.008l-6.455,0.515c-0.15,0.018-0.287-0.126-0.313-0.308
			c-6.131-47.021-17.164-91.552-32.782-132.354C124.308,82.233,99.808,45.419,70.669,24.159z"/>
		
			<linearGradient id="SVGID_13_" gradientUnits="userSpaceOnUse" x1="-648.6089" y1="172.3623" x2="-648.6089" y2="261.9553" gradientTransform="matrix(-1 0 0 1 -544.249 0)">
			<stop  offset="0" style="stop-color:#A2D337"/>
			<stop  offset="0.908" style="stop-color:#31671C"/>
		</linearGradient>
		<path style="fill:url(#SVGID_13_);" d="M125.089,139.583c13.431,40.487,22.144,85.65,25.882,134.23
			c0.011,0.107-0.016,0.209-0.059,0.279c-0.046,0.078-0.113,0.125-0.183,0.132l-6.435,0.272c-0.144,0.01-0.273-0.15-0.285-0.359
			c-2.545-47.743-10.063-92.338-22.339-132.538C111.15,107.408,91.613,61.246,57.746,38.988
			C92.6,59.915,113.604,105.242,125.089,139.583z"/>
		
			<linearGradient id="SVGID_14_" gradientUnits="userSpaceOnUse" x1="-596.8018" y1="-49.5352" x2="-611.4432" y2="107.1289" gradientTransform="matrix(-0.9989 -0.0474 -0.0434 0.9148 -529.4816 11.8471)">
			<stop  offset="0" style="stop-color:#A2D337"/>
			<stop  offset="0.908" style="stop-color:#31671C"/>
		</linearGradient>
		<path style="fill:url(#SVGID_14_);" d="M71.465,139.406c10.392,43.936,22.304,88.802,35.414,133.34
			c0.027,0.093,0.025,0.188-0.002,0.271c-0.031,0.085-0.081,0.152-0.146,0.183l-5.847,2.774c-0.026,0.013-0.058,0.019-0.082,0.021
			c-0.04,0.002-0.08-0.014-0.116-0.035c-0.063-0.038-0.111-0.11-0.135-0.199c-12.166-45.18-23.126-90.623-32.578-135.074
			C58.912,96.996,49.778,50.341,46.26,2.575C50.809,50.016,61.464,96.124,71.465,139.406z"/>
		
			<linearGradient id="SVGID_15_" gradientUnits="userSpaceOnUse" x1="-1238.1885" y1="-51.3203" x2="-1366.5165" y2="691.5032" gradientTransform="matrix(-0.9979 0.0653 0.0653 0.9979 -1261.2791 -17.3079)">
			<stop  offset="0" style="stop-color:#8CCE17"/>
			<stop  offset="0.908" style="stop-color:#31671C"/>
		</linearGradient>
		<path style="fill:url(#SVGID_15_);" d="M18.846,25.685c-2.792,37.571,2.083,79.96,14.892,129.562
			c10.876,41.128,25.365,81.271,43.075,119.316c0.04,0.088,0.101,0.151,0.175,0.169c0.022,0.007,0.046,0.007,0.067,0.01l0,0
			c0.048-0.003,0.092-0.027,0.134-0.067l5.213-5.045c0.058-0.054,0.101-0.139,0.11-0.242c0.014-0.095-0.006-0.203-0.046-0.287
			c-18.332-36.652-33.547-75.553-45.229-115.615C23.184,104.286,16.972,63.64,18.846,25.685z"/>
		
			<linearGradient id="SVGID_16_" gradientUnits="userSpaceOnUse" x1="-518.0098" y1="85.8818" x2="-644.272" y2="816.7471" gradientTransform="matrix(-0.9952 0.0983 0.0998 1.0108 -531.2216 3.8453)">
			<stop  offset="0" style="stop-color:#A2D337"/>
			<stop  offset="0.908" style="stop-color:#31671C"/>
		</linearGradient>
		<path style="fill:url(#SVGID_16_);" d="M-44.189,25.277c12.401,41.378,31.243,82.99,57.948,130.937
			c23.1,40.997,48.449,79.521,75.343,114.501c0.053,0.072,0.089,0.164,0.091,0.272c0.007,0.104-0.018,0.206-0.066,0.276
			l-4.248,6.659c-0.048,0.074-0.11,0.113-0.177,0.119c0,0-0.005,0-0.011,0c-0.069-0.002-0.143-0.041-0.191-0.11
			c-26.41-36.362-51.196-76.245-73.678-118.545C-15.104,110.03-32.607,67.357-44.189,25.277L-44.189,25.277z"/>
		<g>
			
				<linearGradient id="SVGID_17_" gradientUnits="userSpaceOnUse" x1="-945.3188" y1="1794.416" x2="-897.0586" y2="1794.416" gradientTransform="matrix(0.9635 0.2677 -0.2677 0.9635 1355.9131 -1424.7682)">
				<stop  offset="0.2911" style="stop-color:#FFFFFF"/>
				<stop  offset="0.7914" style="stop-color:#DBDBDB"/>
				<stop  offset="0.865" style="stop-color:#D3D3D3"/>
			</linearGradient>
			<path style="fill-rule:evenodd;clip-rule:evenodd;fill:url(#SVGID_17_);" d="M-27.192,45.431
				c12.914,0.696,22.761,19.595,22.761,19.595C0.222,73.188,5.928,83.098,5.928,83.098l0.584-5.84
				c-6.685-26.384-19.634-37.784-19.634-37.784c-8.508-6.952-13.193-6.295-15.523-4.776l-0.017,0.016
				c-3.41,2.131-3.023,3.977-3.023,3.977c0.047,0.625,0.261,0.959,0.261,0.959c-0.714,1.279-0.057,1.201-0.057,1.201
				c0.645,0.13,1.334-0.022,1.334-0.022c-0.941,2.231,0.379,3.701,0.379,3.701C-28.673,45.668-27.192,45.431-27.192,45.431z"/>
			
				<linearGradient id="SVGID_18_" gradientUnits="userSpaceOnUse" x1="-646.9214" y1="2360.8721" x2="-621.4961" y2="2360.8721" gradientTransform="matrix(0.93 0.3677 -0.3677 0.93 1452.7645 -1901.7678)">
				<stop  offset="0" style="stop-color:#EFEFEF"/>
				<stop  offset="0.7865" style="stop-color:#D3D3D3"/>
			</linearGradient>
			<path style="fill:url(#SVGID_18_);" d="M-8.203,54.385l-0.001,0.002c2.699,3.222,5.11,6.913,7.296,10.821
				c1.516,2.58,4.234,8.112,4.5,7.907c0.294-0.222-2.256-5.915-3.832-8.641l0.001,0.006c-2.213-3.945-4.651-7.679-7.393-10.967
				l0.001-0.002c-1.844-2.438-6.12-5.842-6.298-5.22C-13.968,48.51-9.943,52.05-8.203,54.385z"/>
			
				<linearGradient id="SVGID_19_" gradientUnits="userSpaceOnUse" x1="-643.0752" y1="2356.499" x2="-625.733" y2="2362.6301" gradientTransform="matrix(0.93 0.3677 -0.3677 0.93 1452.7645 -1901.7678)">
				<stop  offset="0" style="stop-color:#E8E8E8"/>
				<stop  offset="0.857" style="stop-color:#D3D3D3"/>
			</linearGradient>
			<path style="fill:url(#SVGID_19_);" d="M1.758,65.413l0.002,0.002c-1.698-3.946-3.724-7.654-6.048-10.98
				c-1.516-2.332-5.166-6.047-5.37-5.604c-0.131,0.318,3.268,4.094,4.773,6.45l0.005-0.001c2.254,3.225,4.22,6.827,5.876,10.668
				l-0.003,0.003c1.239,2.628,3.076,8.034,3.312,7.952C4.696,73.743,2.972,68.029,1.758,65.413z"/>
			
				<linearGradient id="SVGID_20_" gradientUnits="userSpaceOnUse" x1="456.8242" y1="-2304.9121" x2="474.1187" y2="-2302.5173" gradientTransform="matrix(0.9593 -0.2956 0.2101 0.9776 49.6082 2450.2839)">
				<stop  offset="0.3879" style="stop-color:#F7F7F7"/>
				<stop  offset="0.8356" style="stop-color:#DBDBDB"/>
			</linearGradient>
			<path style="fill:url(#SVGID_20_);" d="M5.851,76.92c-3.63-21.074-2.514-28.866-2.514-28.866
				c0.989-5.047,5.015-3.874,5.015-3.874c5.179-2.901,9.006,2.95,9.006,2.95c1.038,1.453,1.228,4.19,1.228,4.19
				c0.611,6.176,1.995,18.541,1.995,18.541c0.447,4.146,0.742,6.644,0.742,6.644C13.985,73.621,5.851,76.92,5.851,76.92z"/>
			
				<linearGradient id="SVGID_21_" gradientUnits="userSpaceOnUse" x1="456.9043" y1="-2306.1484" x2="466.2177" y2="-2304.0737" gradientTransform="matrix(0.9593 -0.2956 0.2101 0.9776 49.6082 2450.2839)">
				<stop  offset="0.2012" style="stop-color:#F7F7F7"/>
				<stop  offset="0.8356" style="stop-color:#DBDBDB"/>
			</linearGradient>
			<path style="fill:url(#SVGID_21_);" d="M8.415,44.151c-0.021,0.009-0.042,0.012-0.063,0.028c0,0-4.025-1.173-5.015,3.874
				c0,0-1.116,7.792,2.514,28.866c0,0,1.341-0.548,3.432-0.994C8.63,64.975,7.724,54.893,8.415,44.151z"/>
			
				<linearGradient id="SVGID_22_" gradientUnits="userSpaceOnUse" x1="465.7988" y1="-2302.792" x2="474.7573" y2="-2301.814" gradientTransform="matrix(0.9593 -0.2956 0.2101 0.9776 49.6082 2450.2839)">
				<stop  offset="0.3879" style="stop-color:#F7F7F7"/>
				<stop  offset="0.8356" style="stop-color:#DBDBDB"/>
			</linearGradient>
			<path style="fill:url(#SVGID_22_);" d="M17.357,47.13c0,0-1.145-1.75-3.034-2.861c0.819,13.161,0.85,21.426,0.928,31.061
				c1.958,0.055,4.044,0.379,6.071,1.176c0,0-0.295-2.497-0.742-6.644c0,0-0.981-13.526-1.995-18.541
				C18.585,51.32,18.396,48.583,17.357,47.13z"/>
			
				<linearGradient id="SVGID_23_" gradientUnits="userSpaceOnUse" x1="411.9072" y1="-1730.5391" x2="454.6436" y2="-1730.5391" gradientTransform="matrix(0.9776 -0.2101 0.2101 0.9776 -81.1527 1844.1091)">
				<stop  offset="0.4426" style="stop-color:#F7F7F7"/>
				<stop  offset="0.8653" style="stop-color:#DBDBDB"/>
			</linearGradient>
			<path style="fill:url(#SVGID_23_);" d="M-43.06,60.255c-3.127-7.486,4.164-11.238,4.164-11.238
				c9.948-4.823,18.517,0.606,18.517,0.606C-9.514,54.806,3.148,72.769,3.148,72.769c-1.887-0.338-4.608,0.988-4.608,0.988
				c-24.767-15.584-33.933-13.865-33.933-13.865c-2.468-0.182-5.771,1.902-5.771,1.902C-42.469,62.506-43.06,60.255-43.06,60.255z"
				/>
		</g>
		
			<linearGradient id="SVGID_24_" gradientUnits="userSpaceOnUse" x1="-1291.4775" y1="142.4678" x2="-1356.1442" y2="371.6373" gradientTransform="matrix(-0.9979 0.0653 0.0653 0.9979 -1261.2791 -17.3079)">
			<stop  offset="0" style="stop-color:#A2D337"/>
			<stop  offset="0.908" style="stop-color:#31671C"/>
			<stop  offset="1" style="stop-color:#254A15"/>
		</linearGradient>
		<path style="fill:url(#SVGID_24_);" d="M20.791,16.536C48.449,43.14,70.488,84.147,83.493,130.957
			c12.257,44.065,17.824,92.798,16.101,140.936c-0.008,0.205,0.104,0.39,0.248,0.409l6.421,0.923c0.012,0,0.027-0.002,0.04-0.002
			l0,0c0.059-0.003,0.115-0.037,0.159-0.09c0.055-0.07,0.085-0.167,0.087-0.272c0.678-50.147-5.916-98.522-19.597-143.783
			C72.737,82.14,49.238,42.18,20.791,16.536z"/>
	</g>
</g>
<g id="myFrog" style="display:none;">
	<g id="legs" style="display:inline;">
	</g>
	<g id="Layer_30" style="display:inline;">
	</g>
	<g id="body" style="display:inline;">
	</g>
	<g id="shoulders" style="display:inline;">
	</g>
	<g id="bill" style="display:inline;">
	</g>
	<g id="headGreen" style="display:inline;">
	</g>
	<g id="headBottom" style="display:inline;">
	</g>
	<g id="mouth" style="display:inline;">
	</g>
	<g id="tongue" style="display:inline;">
	</g>
	<g id="eyes" style="display:inline;">
	</g>
	<g id="nose" style="display:inline;">
	</g>
	<g id="shadow" style="display:inline;">
	</g>
	<g id="armL" style="display:inline;">
	</g>
	<g id="armR" style="display:inline;">
	</g>
</g>
<g id="Layer_31" style="display:none;">
</g>
</svg>
