<?xml version="1.0" encoding="iso-8859-1"?>
<!-- Generator: Adobe Illustrator 16.2.1, SVG Export Plug-In . SVG Version: 6.00 Build 0)  -->
<!DOCTYPE svg PUBLIC "-//W3C//DTD SVG 1.1//EN" "http://www.w3.org/Graphics/SVG/1.1/DTD/svg11.dtd">
<svg version="1.1" xmlns="http://www.w3.org/2000/svg" xmlns:xlink="http://www.w3.org/1999/xlink" x="0px" y="0px"
	 width="35.581px" height="23.682px" viewBox="0 0 35.581 23.682" style="enable-background:new 0 0 35.581 23.682;"
	 xml:space="preserve">
<g id="legs" style="display:none;">
	<g style="display:inline;">
		<path style="fill:#00AF35;stroke:#0E0F0F;stroke-miterlimit:10;" d="M-0.497,50.302c0,0-24.916-16.599-33.8-6.079
			C-43.182,54.744-6.944,64.141-6.944,64.141s-23.613,8.604-24.08,10.007c-0.468,1.403,12.926-2.855,12.926-2.855l-7.315,8.7
			l11.456-5.143l-4.141,9.819L4.605,61.757L-0.497,50.302z"/>
		<path style="fill:#00AF35;stroke:#0E0F0F;stroke-miterlimit:10;" d="M36.032,50.302c0,0,24.916-16.599,33.8-6.079
			c8.885,10.521-27.353,19.917-27.353,19.917s23.613,8.604,24.08,10.007c0.468,1.403-12.926-2.855-12.926-2.855l7.315,8.7
			l-11.456-5.143l4.141,9.819L30.93,61.757L36.032,50.302z"/>
	</g>
</g>
<g id="Layer_30" style="display:none;">
	<g style="display:inline;">
		<path style="fill:#00AF35;stroke:#0E0F0F;stroke-miterlimit:10;" d="M12.932,78.122c6.542-10.521,4.303-46.29-4.582-35.77
			C-0.534,52.873-6.944,94.299-6.944,94.299s-23.613,8.604-24.08,10.008c-0.468,1.402,12.926-2.855,12.926-2.855l-7.315,8.699
			l11.456-5.143l-4.141,9.818l22.704-22.91C4.605,91.916,6.389,88.643,12.932,78.122z"/>
		<path style="fill:#00AF35;stroke:#0E0F0F;stroke-miterlimit:10;" d="M24.638,78.122c-6.542-10.521-4.303-46.29,4.582-35.77
			c8.884,10.521,15.294,51.946,15.294,51.946s23.613,8.604,24.08,10.008c0.468,1.402-12.926-2.855-12.926-2.855l7.315,8.699
			l-11.456-5.143l4.141,9.818l-22.704-22.91C32.964,91.916,31.181,88.643,24.638,78.122z"/>
	</g>
</g>
<g id="body" style="display:none;">
	<path style="display:inline;fill:#00AF35;stroke:#0E0F0F;stroke-miterlimit:10;" d="M5.905,17.21c0,0-17.175,14.973-18.227,26.72
		c-0.614,6.856,0.643,12.876,7.105,16.526c4.611,2.604,11.872,4.003,22.994,3.638c26.71-0.877,29.458-7.89,30.013-18.937
		s-17.19-27.368-17.19-27.368L5.905,17.21"/>
</g>
<g id="shoulders" style="display:none;">
	<path id="XMLID_2_" style="display:inline;fill:#007530;" d="M6.399,17.21c0,0-19.748,20.349-17.911,26.72
		c1.839,6.371,29.474,5.202,29.474,5.202s30.313,0.871,29.596-3.975c-0.717-4.846-3.892-15.459-16.893-27.368
		S6.399,17.21,6.399,17.21z"/>
</g>
<g id="bill" style="display:none;">
	<path style="display:inline;fill:#FFFFFF;stroke:#0B0C0C;stroke-miterlimit:10;" d="M-5.216,60.457c0,0,4-31.43,22.117-31.08
		c18.119,0.351,23.294,30.634,23.839,30.309c0.546-0.325-1.98,3.882-22.962,4.408C-3.204,64.621-5.216,60.457-5.216,60.457z"/>
</g>
<g id="headGreen" style="display:none;">
	<path style="display:inline;fill:#00AE37;stroke:#020202;stroke-miterlimit:10;" d="M-13.958,19.909
		c0,0,0.936-31.911,30.859-31.969c29.925-0.059,30.86,30.801,30.86,30.801s-2.338,14.729-30.86,14.962
		C-11.62,33.937-13.958,19.909-13.958,19.909z"/>
</g>
<g id="headBottom" style="display:none;">
	<path style="display:inline;fill:#FFFFFF;stroke:#020202;stroke-miterlimit:10;" d="M-5.214,29.534c0,0,3.412-29.964,22.817-29.029
		C37.008,1.44,39.579,28.092,39.579,28.092s-5.145,5.845-21.977,5.845S-5.214,29.534-5.214,29.534z"/>
</g>
<g id="mouth">
	<path style="fill:#8E1010;stroke:#020202;stroke-miterlimit:10;" d="M0.536,12.428c0,0,3.087-11.622,16.021-11.923
		s18.463,11.923,18.463,11.923s-6.08,10.754-17.242,10.754C6.615,23.182,0.536,12.428,0.536,12.428z"/>
</g>
<g id="tongue" style="display:none;">
	<path style="display:inline;fill:#FF0600;" d="M5.212,16.403c0,0,3.975-7.013,13.093-6.78c9.117,0.233,12.624,6.78,12.624,6.78
		s-4.441,5.377-12.857,5.377C9.654,21.78,5.212,16.403,5.212,16.403z"/>
</g>
<g id="eyes" style="display:none;">
	<g style="display:inline;">
		<ellipse style="fill:#FFFFFF;stroke:#000000;stroke-miterlimit:10;" cx="1.589" cy="-10.833" rx="10.403" ry="11.339"/>
		<ellipse style="fill:#FFFFFF;stroke:#000000;stroke-miterlimit:10;" cx="33.15" cy="-10.833" rx="10.404" ry="11.339"/>
		<circle cx="4.605" cy="-10.833" r="5.103"/>
		<circle cx="30.6" cy="-10.833" r="5.103"/>
		<circle style="fill:#F7F7F7;" cx="5.906" cy="-11.844" r="2.359"/>
		<circle style="fill:#F7F7F7;" cx="29.589" cy="-11.844" r="2.359"/>
	</g>
</g>
<g id="nose" style="display:none;">
	<g style="display:inline;">
		<line style="fill:none;stroke:#000000;stroke-miterlimit:10;" x1="15.119" y1="-0.781" x2="13.892" y2="-2.447"/>
		<line style="fill:none;stroke:#000000;stroke-miterlimit:10;" x1="19.064" y1="-0.781" x2="19.854" y2="-2.447"/>
	</g>
</g>
<g id="shadow" style="display:none;">
	<path style="display:inline;opacity:0.4;fill:#020202;" d="M-13.725,17.21c0,0,3.741,13.92,31.912,13.745
		s29.32-15.257,29.32-15.257l0.283,3.042c0,0-3.815,14.671-30.057,15.196c-26.242,0.525-31.692-12.8-31.692-12.8L-13.725,17.21z"/>
</g>
<g id="armL" style="display:none;">
	<path style="display:inline;fill:#007530;stroke:#000000;stroke-miterlimit:10;" d="M-8.581,40.681c0,0,7.014,14.063,3.741,27.155
		c0,0,3.74-1.403,4.441-3.975l0.936,7.247c0,0,2.338-2.338,2.806-5.845c0.467-3.507,2.805,4.675,3.039,5.845
		c0.233,1.169,3.975-2.805-6.312-24.313l-2.572-6.114"/>
</g>
<g id="armR" style="display:none;">
	<path style="display:inline;fill:#00712A;stroke:#000000;stroke-miterlimit:10;" d="M43.003,40.681c0,0-7.013,14.063-3.74,27.155
		c0,0-3.74-1.403-4.441-3.975l-0.936,7.247c0,0-2.338-2.338-2.806-5.845c-0.467-3.507-2.806,4.675-3.039,5.845
		c-0.233,1.169-3.975-2.805,6.312-24.313l2.572-6.114"/>
</g>
</svg>
