<?xml version="1.0" encoding="iso-8859-1"?>
<!-- Generator: Adobe Illustrator 16.2.1, SVG Export Plug-In . SVG Version: 6.00 Build 0)  -->
<!DOCTYPE svg PUBLIC "-//W3C//DTD SVG 1.1//EN" "http://www.w3.org/Graphics/SVG/1.1/DTD/svg11.dtd">
<svg version="1.1" id="myFrog" xmlns="http://www.w3.org/2000/svg" xmlns:xlink="http://www.w3.org/1999/xlink" x="0px" y="0px"
	 width="107.934px" height="139.688px" viewBox="0 0 107.934 139.688" style="enable-background:new 0 0 107.934 139.688;"
	 xml:space="preserve">
<g id="legs">
</g>
<g id="Layer_30">
</g>
<g id="body">
</g>
<g id="shoulders">
</g>
<g id="bill">
</g>
<g id="headGreen">
</g>
<g id="headBottom">
</g>
<g id="mouth">
</g>
<g id="tongue">
</g>
<g id="eyes">
</g>
<g id="nose">
</g>
<g id="shadow">
</g>
<g id="armL">
</g>
<g id="armR">
</g>
<g>
	<path style="fill:#00AF35;stroke:#0E0F0F;stroke-miterlimit:10;" d="M35.702,72.974c0,0-24.916-16.599-33.8-6.079
		c-8.885,10.521,27.353,19.917,27.353,19.917S5.642,95.417,5.175,96.82c-0.468,1.403,12.926-2.855,12.926-2.855l-7.315,8.7
		l11.456-5.143l-4.141,9.819l22.704-22.911L35.702,72.974z"/>
	<path style="fill:#00AF35;stroke:#0E0F0F;stroke-miterlimit:10;" d="M72.231,72.974c0,0,24.916-16.599,33.8-6.079
		c8.885,10.521-27.353,19.917-27.353,19.917s23.613,8.604,24.08,10.007c0.468,1.403-12.926-2.855-12.926-2.855l7.315,8.7
		l-11.456-5.143l4.141,9.819L67.129,84.429L72.231,72.974z"/>
	<path style="fill:#00AF35;stroke:#0E0F0F;stroke-miterlimit:10;" d="M49.131,100.794c6.542-10.521,4.303-46.29-4.582-35.77
		c-8.884,10.521-15.294,51.946-15.294,51.946s-23.613,8.604-24.08,10.008c-0.468,1.402,12.926-2.855,12.926-2.855l-7.315,8.699
		l11.456-5.143l-4.141,9.818l22.704-22.91C40.805,114.588,42.588,111.315,49.131,100.794z"/>
	<path style="fill:#00AF35;stroke:#0E0F0F;stroke-miterlimit:10;" d="M60.837,100.794c-6.542-10.521-4.303-46.29,4.582-35.77
		c8.884,10.521,15.294,51.946,15.294,51.946s23.613,8.604,24.08,10.008c0.468,1.402-12.926-2.855-12.926-2.855l7.315,8.699
		l-11.456-5.143l4.141,9.818l-22.704-22.91C69.163,114.588,67.38,111.315,60.837,100.794z"/>
	<path style="fill:#00AF35;stroke:#0E0F0F;stroke-miterlimit:10;" d="M42.104,39.883c0,0-17.175,14.973-18.227,26.72
		c-0.614,6.856,0.643,12.876,7.105,16.526c4.611,2.604,11.872,4.003,22.994,3.638c26.71-0.877,29.458-7.89,30.013-18.937
		S66.8,40.463,66.8,40.463L42.104,39.883"/>
	<path id="XMLID_2_" style="fill:#007530;" d="M42.599,39.883c0,0-19.748,20.349-17.911,26.72
		c1.839,6.371,29.474,5.202,29.474,5.202s30.313,0.871,29.596-3.975c-0.717-4.846-3.892-15.459-16.893-27.368
		S42.599,39.883,42.599,39.883z"/>
	<path style="fill:#FFFFFF;stroke:#0B0C0C;stroke-miterlimit:10;" d="M30.983,83.129c0,0,4-31.43,22.117-31.08
		C71.22,52.4,76.395,82.684,76.939,82.359c0.546-0.325-1.98,3.882-22.962,4.408C32.995,87.293,30.983,83.129,30.983,83.129z"/>
	<path style="fill:#00AE37;stroke:#020202;stroke-miterlimit:10;" d="M22.241,42.582c0,0,0.936-31.911,30.859-31.969
		c29.925-0.059,30.86,30.801,30.86,30.801s-2.338,14.729-30.86,14.962C24.579,56.609,22.241,42.582,22.241,42.582z"/>
	<path style="fill:#FFFFFF;stroke:#020202;stroke-miterlimit:10;" d="M30.985,52.207c0,0,3.412-29.964,22.817-29.029
		c19.404,0.935,21.976,27.586,21.976,27.586s-5.145,5.845-21.977,5.845S30.985,52.207,30.985,52.207z"/>
	<path style="fill:#8E1010;stroke:#020202;stroke-miterlimit:10;" d="M36.735,35.101c0,0,3.087-11.622,16.021-11.923
		S71.22,35.101,71.22,35.101s-6.08,10.754-17.242,10.754C42.814,45.854,36.735,35.101,36.735,35.101z"/>
	<path style="fill:#FF0600;" d="M41.411,39.075c0,0,3.975-7.013,13.093-6.78c9.117,0.233,12.624,6.78,12.624,6.78
		s-4.441,5.377-12.857,5.377C45.854,44.452,41.411,39.075,41.411,39.075z"/>
	<ellipse style="fill:#FFFFFF;stroke:#000000;stroke-miterlimit:10;" cx="37.788" cy="11.839" rx="10.403" ry="11.339"/>
	<ellipse style="fill:#FFFFFF;stroke:#000000;stroke-miterlimit:10;" cx="69.349" cy="11.839" rx="10.404" ry="11.339"/>
	<circle cx="40.805" cy="11.839" r="5.103"/>
	<circle cx="66.799" cy="11.839" r="5.103"/>
	<circle style="fill:#F7F7F7;" cx="42.105" cy="10.829" r="2.359"/>
	<circle style="fill:#F7F7F7;" cx="65.789" cy="10.829" r="2.359"/>
	<line style="fill:none;stroke:#000000;stroke-miterlimit:10;" x1="51.318" y1="21.892" x2="50.091" y2="20.226"/>
	<line style="fill:none;stroke:#000000;stroke-miterlimit:10;" x1="55.264" y1="21.892" x2="56.053" y2="20.226"/>
	<path style="opacity:0.4;fill:#020202;" d="M22.475,39.883c0,0,3.741,13.92,31.912,13.745s29.32-15.257,29.32-15.257l0.283,3.042
		c0,0-3.815,14.671-30.057,15.196c-26.242,0.525-31.692-12.8-31.692-12.8L22.475,39.883z"/>
	<path style="fill:#007530;stroke:#000000;stroke-miterlimit:10;" d="M27.618,63.354c0,0,7.014,14.063,3.741,27.155
		c0,0,3.74-1.403,4.441-3.975l0.936,7.247c0,0,2.338-2.338,2.806-5.845c0.467-3.507,2.805,4.675,3.039,5.845
		c0.233,1.169,3.975-2.805-6.312-24.313l-2.572-6.114"/>
	<path style="fill:#00712A;stroke:#000000;stroke-miterlimit:10;" d="M79.202,63.354c0,0-7.013,14.063-3.74,27.155
		c0,0-3.74-1.403-4.441-3.975l-0.936,7.247c0,0-2.338-2.338-2.806-5.845c-0.467-3.507-2.806,4.675-3.039,5.845
		c-0.233,1.169-3.975-2.805,6.312-24.313l2.572-6.114"/>
</g>
</svg>
