<?xml version="1.0" encoding="iso-8859-1"?>
<!-- Generator: Adobe Illustrator 16.2.1, SVG Export Plug-In . SVG Version: 6.00 Build 0)  -->
<!DOCTYPE svg PUBLIC "-//W3C//DTD SVG 1.1//EN" "http://www.w3.org/Graphics/SVG/1.1/DTD/svg11.dtd">
<svg version="1.1" xmlns="http://www.w3.org/2000/svg" xmlns:xlink="http://www.w3.org/1999/xlink" x="0px" y="0px"
	 width="165.527px" height="139.328px" viewBox="0 0 165.527 139.328" style="enable-background:new 0 0 165.527 139.328;"
	 xml:space="preserve">
<g id="Layer_26" style="display:none;">
	<g style="display:inline;">
		<radialGradient id="SVGID_1_" cx="248.1548" cy="236.2329" r="743.1027" gradientUnits="userSpaceOnUse">
			<stop  offset="0.2798" style="stop-color:#D6EEFA"/>
			<stop  offset="0.4728" style="stop-color:#88D4FC"/>
			<stop  offset="0.6369" style="stop-color:#4DC0FE"/>
			<stop  offset="0.7572" style="stop-color:#28B4FF"/>
			<stop  offset="0.8209" style="stop-color:#1AAFFF"/>
		</radialGradient>
		<rect x="-170.886" y="-492.272" style="fill:url(#SVGID_1_);" width="803.364" height="919.821"/>
		<radialGradient id="SVGID_2_" cx="248.062" cy="236.4917" r="839.0167" gradientUnits="userSpaceOnUse">
			<stop  offset="0.2538" style="stop-color:#D6EEFA"/>
			<stop  offset="0.459" style="stop-color:#88D4FC"/>
			<stop  offset="0.6336" style="stop-color:#4DC0FE"/>
			<stop  offset="0.7615" style="stop-color:#28B4FF"/>
			<stop  offset="0.8293" style="stop-color:#1AAFFF"/>
		</radialGradient>
		<polygon style="fill:url(#SVGID_2_);" points="337.909,420.832 373.262,420.832 244.633,129.999 244.71,129.998 400.682,420.832 
			442.328,420.832 246.544,131.806 475.595,420.832 528.843,420.832 246.915,131.08 573.595,420.832 649.285,420.832 
			246.725,130.057 672.874,393.185 672.874,337.6 246.029,128.965 672.874,301.063 672.874,253.838 247.769,128.892 
			672.874,221.816 672.874,178.8 248.067,128.205 672.874,148.717 672.874,106.962 245.01,127.572 245.049,127.52 672.874,76.626 
			672.874,33.541 246.04,126.791 672.874,1.4 672.874,-45.938 244.611,126.688 244.65,126.598 244.603,126.688 244.375,126.775 
			244.396,126.692 672.874,-82.682 672.874,-138.464 243.933,126.372 243.933,126.366 672.874,-183.38 672.874,-254.734 
			245.035,124.707 672.874,-314.91 672.874,-416.339 243.173,125.901 243.153,125.818 671.552,-506.487 672.874,-508.434 
			672.874,-555.339 607.814,-555.339 602.135,-544.747 242.525,125.874 242.433,125.73 543.704,-555.339 461.488,-555.339 
			241.948,125.558 405.227,-555.339 330.365,-555.339 242.044,120.617 277.804,-555.339 205.149,-555.339 241.043,122.676 
			152.49,-555.339 77.572,-555.339 241.051,126.53 241.068,126.537 241.161,126.955 241.141,126.952 240.989,126.502 
			21.156,-555.339 -61.129,-555.339 240.648,126.955 -119.08,-543.895 -125.216,-555.339 -197.502,-555.339 -197.502,-518.99 
			-188.469,-505.658 239.309,125.812 -197.502,-425.368 -197.502,-322.12 239.578,127.043 -197.502,-260.553 -197.502,-187.916 
			238.75,127.15 -197.502,-142.157 -197.502,-85.322 240.082,128.517 239.833,128.6 240.111,128.536 240.298,128.622 
			240.111,128.727 -197.502,-47.621 -197.502,0.663 239.978,129.19 239.833,129.324 -197.502,33.834 -197.502,77.772 
			238.475,129.645 -197.502,108.704 -197.502,151.351 238.958,130.267 -197.502,182.32 -197.502,226.321 238.112,131.096 
			-197.502,259.215 -197.502,307.547 238.551,131.711 -197.502,344.953 -197.502,401.917 238.729,132.515 -160.267,420.832 
			-85.043,420.832 241.424,131.22 -40.246,420.832 12.683,420.832 241.256,132.306 45.914,420.832 87.356,420.832 242.545,131.317 
			114.583,420.832 149.816,420.832 243.271,130.844 243.353,130.93 243.275,130.823 243.395,130.489 243.45,130.534 243.353,130.93 
			173.924,420.832 205.991,420.832 243.562,133.058 228.383,420.832 259.528,420.832 244.421,135.488 281.726,420.832 
			313.887,420.832 244.29,130.571 244.295,130.578 		"/>
	</g>
</g>
<g id="Layer_27" style="display:none;">
	<g style="display:inline;">
		<g>
		</g>
		
			<linearGradient id="SVGID_3_" gradientUnits="userSpaceOnUse" x1="398.562" y1="-149.8755" x2="398.562" y2="84.684" gradientTransform="matrix(-1 0 0 1 193.959 0)">
			<stop  offset="0" style="stop-color:#F5F9C7"/>
			<stop  offset="0.5215" style="stop-color:#CCDD4B"/>
			<stop  offset="0.7263" style="stop-color:#598923"/>
			<stop  offset="1" style="stop-color:#528421"/>
		</linearGradient>
		<ellipse style="fill:url(#SVGID_3_);" cx="-204.602" cy="96.731" rx="222.67" ry="127.298"/>
		
			<linearGradient id="SVGID_4_" gradientUnits="userSpaceOnUse" x1="-4.1191" y1="-67.3662" x2="0.8085" y2="134.6633" gradientTransform="matrix(-0.9953 0.0973 0.0973 0.9953 163.1138 -22.3741)">
			<stop  offset="0" style="stop-color:#F5F9C7"/>
			<stop  offset="0.5215" style="stop-color:#CCDD4B"/>
			<stop  offset="0.7319" style="stop-color:#598923"/>
			<stop  offset="1" style="stop-color:#528421"/>
		</linearGradient>
		<path style="fill:url(#SVGID_4_);" d="M-205.359,11.465c1.083,0.044,2.23,0.378,3.405,0.17
			C-138.213,0.315-74.524,3.706-6.99,9.224c53.275,4.352,110.976,21.865,165.639,17.378C211.257,22.288,263.182,4.559,315.758,3.53
			c126.303-2.467,230.036,66.531,230.036,66.531l-739.487,92.299L-205.359,11.465z"/>
		
			<linearGradient id="SVGID_5_" gradientUnits="userSpaceOnUse" x1="-141.585" y1="-100.6201" x2="-141.585" y2="156.3409" gradientTransform="matrix(-0.9576 0.0523 0.0545 0.9985 185.5684 -12.754)">
			<stop  offset="0" style="stop-color:#F5F9C7"/>
			<stop  offset="0.4663" style="stop-color:#CCDD4B"/>
			<stop  offset="0.5207" style="stop-color:#C1D547"/>
			<stop  offset="0.6159" style="stop-color:#A4C03D"/>
			<stop  offset="0.7396" style="stop-color:#769E2D"/>
			<stop  offset="0.8081" style="stop-color:#598923"/>
			<stop  offset="1" style="stop-color:#528421"/>
		</linearGradient>
		<path style="fill:url(#SVGID_5_);" d="M26.221,138.905c2.764,64.704,140.42,107.727,307.466,96.09
			c167.046-11.638,300.222-73.523,297.457-138.228c-2.763-64.7-140.42-107.721-307.464-96.085
			C156.633,12.319,23.458,74.206,26.221,138.905z"/>
		
			<linearGradient id="SVGID_6_" gradientUnits="userSpaceOnUse" x1="-56.1602" y1="-84.5972" x2="-50.5493" y2="145.4466" gradientTransform="matrix(-1 0 0 1 193.959 0)">
			<stop  offset="0" style="stop-color:#F5F9C7"/>
			<stop  offset="0.547" style="stop-color:#CCDD4B"/>
			<stop  offset="0.7874" style="stop-color:#598923"/>
			<stop  offset="1" style="stop-color:#528421"/>
		</linearGradient>
		<path style="fill:url(#SVGID_6_);" d="M-181.043,12.445c1.234,0.205,2.523,0.435,3.875,0.679
			c76.885,14.055,156.036,14.108,232.735,30.1c60.505,12.614,115.209,35.983,178.071,38.661
			c60.503,2.578,121.394-10.317,181.572-3.974c144.561,15.245,257.077,109.192,257.077,109.192h-853.197L-181.043,12.445z"/>
		
			<linearGradient id="SVGID_7_" gradientUnits="userSpaceOnUse" x1="372.1577" y1="-126.2827" x2="389.7775" y2="219.3406" gradientTransform="matrix(1 0 0 1 -91.8672 0)">
			<stop  offset="0" style="stop-color:#F5F9C7"/>
			<stop  offset="0.5215" style="stop-color:#CCDD4B"/>
			<stop  offset="0.7056" style="stop-color:#528421"/>
		</linearGradient>
		<path style="fill:url(#SVGID_7_);" d="M-148.158,185.879l-79.61-21.226c64.215-22.043,348.116-104.737,549.235-108.679
			c0,0,249.689-3.688,414.405,83.562c36.894,19.547,64.996,35.595,83.222,46.343H-148.158z"/>
	</g>
	<g style="display:inline;">
		<g>
		</g>
	</g>
</g>
<g id="Layer_29" style="display:none;">
	<g style="display:inline;">
		<g>
			
				<linearGradient id="SVGID_8_" gradientUnits="userSpaceOnUse" x1="37.6338" y1="350.1577" x2="57.3265" y2="349.8813" gradientTransform="matrix(0.998 -0.0625 0.0625 0.998 -64.4707 -356.7432)">
				<stop  offset="0" style="stop-color:#9E653E"/>
				<stop  offset="0.2883" style="stop-color:#DEA071"/>
				<stop  offset="0.3493" style="stop-color:#E1AC83"/>
				<stop  offset="0.4399" style="stop-color:#E6BB97"/>
				<stop  offset="0.5" style="stop-color:#E7C09F"/>
				<stop  offset="0.5652" style="stop-color:#E6BC99"/>
				<stop  offset="0.6537" style="stop-color:#E2B087"/>
				<stop  offset="0.7362" style="stop-color:#DEA071"/>
				<stop  offset="1" style="stop-color:#9E653E"/>
			</linearGradient>
			<path style="fill-rule:evenodd;clip-rule:evenodd;fill:url(#SVGID_8_);" d="M19.566,45.343c0.352,3.997,0.638,8.032,0.847,12.13
				c0.098,1.916,0.191,4.203,0.167,6.062c-0.068,5.182-1.284,7.96-1.635,12.604c-0.271,3.588-0.42,7.486-0.839,10.823
				c-0.086,0.657-0.182,1.295-0.305,1.766c-0.312-0.233-0.455-1.283-0.701-1.979c-0.253-0.795-0.506,0.143-0.544,0.917
				c-0.132,2.539,0.13,5.185,0.267,7.865c0.017,0.65,0.002,1.308-0.012,1.99c-0.003,0.531-0.018,1.044-0.053,1.549
				c-0.058,0.776-0.127,1.469-0.204,2.154c-0.155,1.369-0.338,2.705-0.55,4.037c-0.077,0.259-0.104,0.744-0.091,1.172
				c-0.019,0.59-0.038,1.191-0.109,1.745c-0.419,3.457-1.035,6.014-1.269,9.779c-0.169,2.907-1.018,2.786-1.729,1.871
				c-0.152-0.187-0.304-0.431-0.448-0.728c-0.143-0.297-0.278-0.642-0.399-1.027c-0.15-0.493-0.3-0.988-0.442-1.509
				c-0.297-1.19-0.611-2.273-0.94-3.32c-0.164-0.521-0.336-1.113-0.577-2.686c-0.223-1.28-0.321-2.821-0.483-4.314
				c-0.079-0.746-0.177-1.504-0.312-2.178c-0.134-0.673-0.305-1.265-0.529-1.674c-0.036-0.067-0.126,0.847-0.242,1.021
				c-0.096,0.026-0.159-0.394-0.238-0.592c-0.111-0.616-0.23-1.345-0.46-1.823c-0.211-0.494-0.409-1.003-0.598-1.539
				c-1.699-4.801-2.593-11.25-3.924-17.312c-1.272-5.807-2.468-9.116-3.122-16.313c-0.145-1.588-0.242-3.234-0.363-4.833
				c-0.697-9.231-1.148-18.583-1.773-27.842c-0.046-0.691-0.094-1.386-0.141-2.079C-2.632,24.55-3.062,17.99-3.34,11.268
				c-0.047-1.06-0.221-2.084-0.301-3.137C-4.137,1.946-4.658-4.112-5.218-10.279c-0.388-4.305-0.705-8.512-1.053-12.782
				c-0.062-0.69-0.122-1.349-0.181-2.007c-0.409-4.395-0.811-8.789-1.171-13.197c-0.039-0.573-0.072-1.136-0.099-1.705
				c-0.079-1.683-0.1-3.367-0.042-5.03c0.018-0.422,0.009-0.868-0.018-1.309c-0.025-0.444-0.065-0.885-0.115-1.3
				c-0.053-0.713-0.106-1.422-0.159-2.133c-0.85-11.37-1.69-22.738-2.521-34.11c-0.053-0.729-0.105-1.452-0.151-2.157
				c-0.028-0.635-0.057-1.265-0.082-1.898c-0.181-2.6,0.197-4.853,0.069-7.442c-0.183-3.287-0.664-6.254-0.976-9.415
				c-0.069-0.615-0.142-1.228-0.221-1.838c-0.078-0.611-0.163-1.218-0.252-1.826c-0.076-0.668-0.144-1.303-0.214-1.93
				c-0.069-0.617-0.14-1.235-0.213-1.85c-0.062-0.768-0.117-1.506-0.17-2.239c-0.428-5.989-1.33-13.571-1.357-19.488
				c-0.02-4.463,1.45-6.935,2.712-5.837c0.045,0.047,0.089,0.09,0.133,0.132c0.044,0.041,0.088,0.084,0.133,0.13
				c0.049,0.048,0.088,0.145,0.147,0.339c0.021,0.067,0.04,0.139,0.057,0.213c0.018,0.077,0.034,0.155,0.049,0.239
				c0.021,0.106,0.04,0.221,0.059,0.335c0.052,0.316,0.087,0.657,0.117,1.004c0.008,0.087,0.015,0.173,0.022,0.263
				c0.007,0.088,0.013,0.177,0.02,0.265c0.055,0.739,0.103,1.379,0.149,2.131c0.012,0.169,0.029,0.399,0.053,0.627
				c0.045,0.454,0.114,0.884,0.227,1.25c-0.008-0.215-0.013-0.433-0.014-0.65c-0.001-0.217-0.001-0.434,0.003-0.572
				c0.135-0.99,0.039-2.269,0.135-3.337c0.017-0.107,0.026-0.25,0.04-0.398c0.022-0.297,0.05-0.62,0.138-0.704
				c0.074-0.142,0.158-0.162,0.242-0.133c1.704,0.582,3.366-0.308,5-0.85c0.569-0.157,1.068-1.25,1.687-1.184
				c0.73-0.092,1.526,1.094,2.255,1.031c0.039-0.002,0.077-0.01,0.116-0.017c0.019,0.064,0.038,0.126,0.058,0.186
				c0.02,0.059,0.039,0.114,0.057,0.169c0.025,0.053,0.049,0.123,0.072,0.206c0.023,0.083,0.047,0.176,0.07,0.297
				c0.125,0.788,0.11,1.878,0.348,2.466c0.12,0.294,0.206-0.273,0.267-0.685c0.02-0.124,0.037-0.213,0.05-0.274
				c0.045-0.665-0.01-1.411-0.032-2.065c-0.002-0.247,0.007-0.471,0.036-0.674c0.028-0.188,0.073-0.322,0.145-0.395
				c0.026-0.026,0.052-0.05,0.079-0.072c0.188-0.151,0.377-0.259,0.574-0.256c0.122,0.005,0.245,0.049,0.371,0.153
				c0.976,0.886,2.639-2.571,3.482-0.614c0.604,1.402,0.655,5.664,0.793,7.699c0.039,0.551,0.076,1.099,0.113,1.649
				c0.188,2.755,0.374,5.498,0.586,8.243c0.052,0.645,0.104,1.288,0.161,1.951c0.093,0.761,0.182,1.52,0.265,2.281
				c0.084,0.758,0.165,1.523,0.242,2.286c0.536,5.41,0.977,10.84,1.109,16.46c0.198,9.086,0.877,17.709,1.573,26.569
				c0.069,0.879,0.142,1.76,0.217,2.642c0.375,4.4,0.815,8.778,1.336,13.122c0.074,0.855,0.145,1.707,0.209,2.561
				c0.066,0.852,0.126,1.708,0.179,2.564c0.053,0.822,0.106,1.642,0.16,2.465c0.484,7.377,1.022,14.708,1.613,22.037
				c0.057,0.697,0.114,1.396,0.169,2.095c0.112,1.278,0.222,2.555,0.329,3.835c0.052,0.636,0.106,1.277,0.158,1.92
				c0.457,5.774,0.363,11.406,1.024,17.187c0.059,0.533,0.119,1.061,0.18,1.589c0.059,0.527,0.12,1.053,0.179,1.58
				c0.142,1.345,0.319,2.845,0.392,4.255c0.705,10.662,1.432,21.194,2.655,31.729C18.938,38.766,19.274,42.044,19.566,45.343z"/>
			<g>
				
					<linearGradient id="SVGID_9_" gradientUnits="userSpaceOnUse" x1="37.5649" y1="347.9351" x2="56.1133" y2="347.9351" gradientTransform="matrix(0.998 -0.0625 0.0625 0.998 -64.4707 -356.7432)">
					<stop  offset="0" style="stop-color:#9E653E"/>
					<stop  offset="0.4479" style="stop-color:#DEA071"/>
					<stop  offset="0.6012" style="stop-color:#D79A6C"/>
					<stop  offset="1" style="stop-color:#9E653E"/>
				</linearGradient>
				<path style="fill:url(#SVGID_9_);" d="M9.245,92.943c-0.035-0.458-0.07-0.917-0.106-1.365L9.091,91.15
					C8.707,87.689,8.31,84.109,8.28,80.521c-0.035-0.463-0.07-0.924-0.107-1.383C5.043,39.037,1.741-1.692-1.452-41.08
					c-0.819-10.102-1.637-20.187-2.45-30.246c-0.038-0.454-0.074-0.908-0.108-1.37c-0.059-1.166-0.094-2.332-0.129-3.458
					c-0.104-3.442-0.204-6.693-0.915-10.12c-0.146-0.628-0.186-1.325-0.224-1.998c-0.009-0.158-0.019-0.313-0.028-0.461
					l-0.093-1.127l-0.907-11.27c-0.213-2.653-0.427-5.481-0.636-8.394c-0.079-0.576-0.12-1.127-0.123-1.68l-0.001-0.035
					c-0.475-6.729-0.915-13.668-1.339-20.378c-0.144-2.278-0.29-4.562-0.436-6.846c-0.292-0.021-0.585-0.076-0.878-0.177
					c-0.084-0.029-0.168-0.009-0.242,0.133c-0.087,0.084-0.115,0.407-0.138,0.704c-0.008,0.1-0.016,0.191-0.026,0.277
					c0,0.111-0.002,0.222-0.002,0.332l-0.002,0.213c1.193,16.226,2.405,32.393,3.6,48.051l0.102,1.366
					c0.101,0.721,0.197,1.444,0.288,2.168l0.133,1.078c0.504,3.303,0.623,6.64,0.737,9.869c0.055,1.542,0.11,3.139,0.208,4.71
					c0.029,0.361,0.056,0.72,0.083,1.08l0.021,0.281C-1.463-23.107,2.22,22.914,5.783,67.417l1.012,12.668
					c-0.004,0.347,0.002,0.607,0.009,0.865l0.004,0.152c0.043,1.229-0.002,2.472-0.045,3.673c-0.079,2.233-0.154,4.342,0.274,6.438
					c0.821,3.839,1.197,7.48,1.565,11.493c0.032-0.193,0.057-0.341,0.073-0.312c0.224,0.409,0.395,1.001,0.529,1.674
					c0.052,0.265,0.098,0.545,0.141,0.828c0.026,0.114,0.053,0.227,0.078,0.352c0.117,0.595,0.221,1.319,0.315,2.214
					c0.051,0.476,0.096,0.955,0.141,1.43c0.098,1.049,0.191,2.039,0.344,2.924c0.01,0.064,0.019,0.123,0.029,0.185
					c0.12,0.58,0.224,0.927,0.324,1.246c0.101,0.32,0.2,0.647,0.297,0.977C10.336,107.134,9.794,100.042,9.245,92.943z"/>
				
					<linearGradient id="SVGID_10_" gradientUnits="userSpaceOnUse" x1="37.5269" y1="336.4419" x2="56.0733" y2="336.4419" gradientTransform="matrix(0.998 -0.0625 0.0625 0.998 -64.4707 -356.7432)">
					<stop  offset="0" style="stop-color:#9E653E"/>
					<stop  offset="0.4479" style="stop-color:#DEA071"/>
					<stop  offset="0.6012" style="stop-color:#D79A6C"/>
					<stop  offset="1" style="stop-color:#9E653E"/>
				</linearGradient>
				<path style="fill:url(#SVGID_10_);" d="M5.258,90.303c-0.117-2.887-0.237-5.87-0.456-8.82c-0.05-0.357-0.104-0.703-0.164-1.067
					c-0.168-0.995-0.342-2.023-0.425-3.114c-0.292-4.308-0.619-8.865-0.969-13.548c-0.068-0.902-0.136-1.808-0.211-2.707
					c-0.234-2.531-0.471-5.271-0.623-8.144c-0.071-0.907-0.142-1.811-0.215-2.713C1.63,43.037,1.034,35.76,0.458,28.721
					C-1.009,10.831-2.524-7.668-3.69-25.809c-0.071-0.944-0.277-1.967-0.476-2.957c-0.202-1-0.41-2.033-0.482-2.998
					C-5.306-42.27-6.103-53.578-7.156-67.352l-0.095-1.272l-0.09-1.678c-0.182-3.43-0.371-6.977-0.77-10.401
					c-0.026-0.371-0.054-0.74-0.083-1.114c-0.155-1.992-0.332-3.793-0.542-5.512c-0.032-0.393-0.06-0.785-0.086-1.176
					c-0.027-0.391-0.053-0.78-0.077-1.164c-0.032-0.424-0.065-0.848-0.1-1.271l-0.006-0.077
					c-1.253-15.857-2.546-32.239-3.663-48.744c-0.344,0.3-0.66,0.843-0.911,1.594c0.376,4.982,0.756,9.963,1.136,14.945
					c0.779,10.201,1.585,20.751,2.34,31.129l0.094,1.32l0.05,1.31c0.025,0.692,0.051,1.381,0.08,2.068
					c0.016,0.37,0.033,0.736,0.052,1.122c0.045,1.691,0.243,3.477,0.433,5.203c0.059,0.522,0.116,1.044,0.17,1.566l0.028,0.288
					c0.022,0.228,0.046,0.457,0.067,0.688c0.165,2.112,0.316,4.33,0.462,6.476l0.155,2.256l0.104,1.334
					c0.201,2.49,0.415,5.01,0.63,7.542c0.816,9.62,1.662,19.567,1.835,28.446c-0.003,1.506,0.378,3.049,0.781,4.684
					c0.476,1.925,0.968,3.917,0.928,6.144c-0.355,7.452,0.55,15.442,1.426,23.17c0.223,1.958,0.432,3.808,0.623,5.66
					c0.841,9.787,1.557,19.906,2.25,29.693c0.254,3.576,0.507,7.158,0.768,10.741l0.016,0.215c0.061,0.834,0.122,1.67,0.171,2.526
					c0.01,0.334,0.022,0.669,0.037,1.002c0,0,0.039,0.761,0.053,1.021c0.084,3.795,0.394,7.447,0.947,11.176
					c0.032,0.396,0.064,0.789,0.098,1.187c0.465,5.56,0.926,10.579,1.41,15.346c0.075,0.981,0.216,1.955,0.353,2.897
					c0.129,0.891,0.251,1.731,0.311,2.524l0.15,1.947c0.003,0.188,0.008,0.345,0.012,0.468l0.18,0.938
					c0.185,0.959,0.364,1.893,0.546,2.809c0.08,0.391,0.161,0.777,0.244,1.161C5.326,91.99,5.292,91.147,5.258,90.303z"/>
				
					<linearGradient id="SVGID_11_" gradientUnits="userSpaceOnUse" x1="37.6216" y1="346.3452" x2="56.1896" y2="346.3452" gradientTransform="matrix(0.998 -0.0625 0.0625 0.998 -64.4707 -356.7432)">
					<stop  offset="0" style="stop-color:#9E653E"/>
					<stop  offset="0.4479" style="stop-color:#DEA071"/>
					<stop  offset="0.6012" style="stop-color:#D79A6C"/>
					<stop  offset="1" style="stop-color:#9E653E"/>
				</linearGradient>
				<path style="fill:url(#SVGID_11_);" d="M16.229,103.736C14.299,80.5,12.227,57.2,10.268,35.314
					c-0.042-0.455-0.083-0.911-0.123-1.359c-0.492-5.674-1.006-11.355-1.502-16.85l-0.576-6.387
					c-0.021-0.236-0.155-1.741-0.155-1.741C7.8,7.728,7.688,6.479,7.578,5.232C7.54,4.776,7.499,4.32,7.458,3.864
					C7.437,3.19,7.354,2.491,7.274,1.815C7.193,1.131,7.11,0.424,7.094-0.235L6.973-1.606C4.865-25.45,2.418-53.751,0.249-82.88
					l-0.1-1.359c-0.069-1.014-0.137-2.034-0.204-3.056c-0.197-3.007-0.4-6.116-0.679-9.143c-0.03-0.402-0.058-0.805-0.086-1.211
					l-0.011-0.146c-1.051-14.972-1.933-28.961-2.689-42.712c-0.385,0.281-0.74,0.827-1.123,0.988
					c0.092,0.578,0.208,1.16,0.333,1.763c0.254,1.234,0.519,2.51,0.551,3.887c0.66,11.581,1.395,23.366,2.248,36.027l0.091,1.329
					c0.485,5.217,0.83,10.17,1.024,14.717c0.029,0.47,0.06,0.925,0.094,1.377l0.102,1.367c0.031,0.455,0.065,0.913,0.1,1.368
					C2.507-41.512,5.59-4.716,8.572,30.871c2.234,26.655,4.542,54.198,6.64,81.357c0.204-1.295,0.415-2.592,0.591-4.048
					c0.018-0.142,0.025-0.292,0.039-0.438c0-0.021,0-0.044,0.001-0.064c-0.011-0.346,0.002-0.794,0.063-1.093
					c0.001-0.05,0.004-0.101,0.006-0.15c-0.014-0.428,0.014-0.913,0.091-1.172C16.085,104.755,16.157,104.246,16.229,103.736z"/>
				
					<linearGradient id="SVGID_12_" gradientUnits="userSpaceOnUse" x1="37.4971" y1="404.3481" x2="56.088" y2="404.3481" gradientTransform="matrix(0.998 -0.0625 0.0625 0.998 -64.4707 -356.7432)">
					<stop  offset="0" style="stop-color:#9E653E"/>
					<stop  offset="0.4479" style="stop-color:#DEA071"/>
					<stop  offset="0.6012" style="stop-color:#D79A6C"/>
					<stop  offset="1" style="stop-color:#9E653E"/>
				</linearGradient>
				<path style="fill:url(#SVGID_12_);" d="M2.329,77.711c-0.257-4.093-0.58-8.439-1.014-13.681
					c-0.035-0.412-0.073-0.82-0.119-1.196c-0.575-2.864-0.872-5.899-0.907-9.271c-0.011-0.212-0.023-0.42-0.035-0.625l-0.027-0.473
					c-0.083-1.085-0.15-2.172-0.198-3.227c-0.052-0.706-0.11-1.394-0.169-2.079l-0.408-4.786l-0.109-1.311
					c-0.591-7.165-1.311-16.621-1.626-26.219c-0.027-1.132-0.32-2.174-0.629-3.278c-0.133-0.476-0.269-0.958-0.383-1.455
					c0.05,0.451,0.094,0.911,0.114,1.373c0.291,6.945,0.737,13.698,1.169,20.02l0.141,2.1c0.261,3.871,0.497,7.824,0.725,11.645
					c0.296,4.965,0.603,10.099,0.967,15.107c0.081,0.591,0.167,1.181,0.251,1.772c0.171,1.18,0.347,2.397,0.492,3.618
					c0.029,0.313,0.113,1.265,0.113,1.265c0.189,2.183,0.379,4.367,0.565,6.534c0.158,0.824,0.327,1.612,0.502,2.391
					c0.209,0.886,0.426,1.77,0.649,2.69C2.372,78.323,2.35,78.017,2.329,77.711z"/>
				
					<linearGradient id="SVGID_13_" gradientUnits="userSpaceOnUse" x1="37.6934" y1="331.521" x2="56.2442" y2="331.521" gradientTransform="matrix(0.998 -0.0625 0.0625 0.998 -64.4707 -356.7432)">
					<stop  offset="0" style="stop-color:#9E653E"/>
					<stop  offset="0.4479" style="stop-color:#DEA071"/>
					<stop  offset="0.6012" style="stop-color:#D79A6C"/>
					<stop  offset="1" style="stop-color:#9E653E"/>
				</linearGradient>
				<path style="fill:url(#SVGID_13_);" d="M18.992,75.621c-0.363-4.517-0.729-9.039-1.111-13.596l-0.223-2.714
					c-0.21-2.428-0.402-4.892-0.588-7.276c-0.265-3.406-0.539-6.929-0.871-10.383l-0.274-3.293
					C14.758,24.314,13.553,9.79,12.405-4.482l-0.106-1.335c-0.26-3.63-0.608-7.259-0.944-10.768
					c-0.233-2.438-0.475-4.958-0.685-7.459c-0.264-3.131-0.446-6.35-0.62-9.463c-0.166-2.952-0.337-6.004-0.58-8.961l-0.035-0.483
					c-0.021-0.284-0.041-0.566-0.063-0.852C8.445-56.462,7.646-68.19,6.927-79.658c-0.041-0.534-0.286-1.139-0.544-1.778
					c-0.254-0.628-0.517-1.277-0.631-1.953c-0.146-0.949-0.08-1.895-0.016-2.81c0.046-0.662,0.089-1.287,0.046-1.86
					c-0.248-6.683-0.762-13.495-1.258-20.083c-0.492-6.521-1-13.265-1.228-19.684c-0.015-1.726-0.37-3.468-0.745-5.312
					c-0.448-2.203-0.913-4.481-0.814-6.894c0.004-0.142,0.008-0.285,0.012-0.428c-0.11-0.011-0.217-0.054-0.314-0.144
					c-0.093-0.076-0.184-0.12-0.273-0.14c0.066,3.028,0.138,6.154,0.485,9.197c0.083,0.426,0.208,0.859,0.331,1.278
					c0.185,0.638,0.376,1.298,0.428,1.967c0.217,3.599,0.416,7.26,0.608,10.801c0.723,13.339,1.47,27.131,3.395,40.615
					c0.022,0.304-0.064,0.534-0.147,0.757c-0.077,0.202-0.148,0.392-0.13,0.634c0.666,11.594,1.634,23.267,2.652,35.202l0.114,1.312
					c0.391,5.282,0.828,10.645,1.251,15.832c0.771,9.447,1.569,19.215,2.109,28.857l0.06,1.196c0.06,1.197,0.117,2.396,0.17,3.589
					c0.058,0.767,0.288,1.523,0.531,2.325c0.267,0.877,0.543,1.784,0.62,2.791c0.442,7.112,0.935,14.482,1.506,22.532
					c0.03,0.44,0.062,0.884,0.094,1.323c0.999,13.821,2.073,27.839,3.281,42.792c0.036-0.566,0.071-1.132,0.105-1.689
					c0.074-1.186,0.147-2.368,0.233-3.521c0.026-0.352,0.062-0.721,0.105-1.099C18.971,75.838,18.981,75.73,18.992,75.621z"/>
				
					<linearGradient id="SVGID_14_" gradientUnits="userSpaceOnUse" x1="37.6982" y1="334.9673" x2="56.219" y2="334.9673" gradientTransform="matrix(0.998 -0.0625 0.0625 0.998 -64.4707 -356.7432)">
					<stop  offset="0" style="stop-color:#9E653E"/>
					<stop  offset="0.4479" style="stop-color:#DEA071"/>
					<stop  offset="0.6012" style="stop-color:#D79A6C"/>
					<stop  offset="1" style="stop-color:#9E653E"/>
				</linearGradient>
				<path style="fill:url(#SVGID_14_);" d="M18.042,87.424l-0.31-3.591c-1.22-14.119-2.481-28.72-3.44-43.076l-0.086-1.341
					c-0.138-2.206-0.268-4.414-0.387-6.564l-0.074-1.343c-0.087-1.318-0.145-2.642-0.201-3.922l-0.068-1.444l-0.061-1.338
					l-0.115-2.682l-0.053-1.339c-0.034-0.893-0.067-1.784-0.098-2.68c-0.015-0.388-0.053-0.762-0.116-1.145
					c-0.057-0.345-0.134-0.697-0.229-1.045c-0.171-0.667-0.417-1.31-0.654-1.931c-0.488-1.272-0.992-2.589-0.907-4.236
					c0.026-0.348,0.119-0.644,0.217-0.956l0.069-0.227c0.125-0.419,0.2-0.8,0.164-1.29l-0.091-1.187
					c-0.376-4.803-0.776-9.667-1.163-14.373c-0.676-8.236-1.375-16.753-1.974-25.2l-0.104-1.324
					C7.291-48.206,6.167-62.595,5.208-77.077c-0.021-1.202-0.241-2.417-0.453-3.591c-0.171-0.948-0.348-1.927-0.423-2.905
					c-1.118-17.652-2.447-35.506-3.734-52.773l-0.288-3.862c0.024,0.53,0.046,1.077,0.009,1.605
					c-0.013,0.06-0.029,0.148-0.048,0.269c0,0.003-0.001,0.006-0.002,0.01c0.011,0.35,0.014,0.7-0.009,1.031
					c-0.013,0.061-0.03,0.15-0.05,0.274c-0.061,0.412-0.147,0.979-0.267,0.685c-0.132-0.325-0.185-0.805-0.229-1.302
					c-0.003-0.007-0.006-0.015-0.008-0.023c2.688,36.17,5.486,73.027,8.318,109.597c0,0,0.167,2.101,0.196,2.468
					c0.031,0.366,0.059,0.731,0.085,1.102C9.007-14.457,9.821-4.007,10.794,7.454l0.596,7.615c0.467,5.989,0.95,12.184,1.451,18.356
					l0.521,6.574c1.253,16.021,2.568,32.307,3.737,46.748c0,0.001,0.001,0.002,0.001,0.004c0.247,0.695,0.389,1.745,0.701,1.979
					C17.896,88.369,17.973,87.912,18.042,87.424z"/>
				
					<linearGradient id="SVGID_15_" gradientUnits="userSpaceOnUse" x1="37.5684" y1="351.1206" x2="56.1593" y2="351.1206" gradientTransform="matrix(0.998 -0.0625 0.0625 0.998 -64.4707 -356.7432)">
					<stop  offset="0" style="stop-color:#9E653E"/>
					<stop  offset="0.4479" style="stop-color:#DEA071"/>
					<stop  offset="0.6012" style="stop-color:#D79A6C"/>
					<stop  offset="1" style="stop-color:#9E653E"/>
				</linearGradient>
				<path style="fill:url(#SVGID_15_);" d="M12.357,119.103c0.145,0.297,0.296,0.541,0.448,0.728
					c0.317,0.408,0.661,0.655,0.961,0.551c-2.075-27.766-4.45-56.067-6.747-83.436C3.977,0.683,0.83-36.813-1.662-73.561
					c-0.023-0.332-0.046-0.662-0.068-0.993l-0.025-0.376c-0.014-0.4-0.033-0.797-0.056-1.193c-0.019-0.398-0.042-0.793-0.067-1.191
					c-0.347-6.277-0.747-12.37-1.224-18.628c-0.026-0.417-0.053-0.843-0.077-1.262c-0.127-2.105-0.25-4.211-0.373-6.32
					c-0.039-1.305-0.484-2.517-0.916-3.689c-0.46-1.25-0.896-2.431-0.781-3.593c0.412-5.191-0.063-10.52-0.523-15.674
					c-0.195-2.19-0.397-4.457-0.526-6.665c-0.075-1.755-0.171-3.625-0.294-5.677c-0.471,0.155-0.944,0.28-1.421,0.337
					c0.792,10.894,1.174,19.346,1.237,27.225l0.123,1.696c0.184,1.358,0.557,2.604,0.919,3.807c0.425,1.415,0.864,2.878,0.987,4.516
					c0.149,2.627,0.299,5.252,0.454,7.881l0.068,1.122c0.13,1.794,0.285,3.612,0.435,5.37c0.391,4.587,0.797,9.332,0.783,14.03
					l0.092,1.365c2.516,37.792,5.77,76.419,8.917,113.774C7.066,54.93,8.166,67.99,9.222,80.827c0.037,0.47,0.072,0.939,0.105,1.423
					c0.101,1.668,0.251,3.516,0.448,5.492c0.034,0.348,0.066,0.71,0.098,1.072l0.021,0.24c0.863,10.62,1.633,20.374,2.349,29.785
					C12.281,118.927,12.318,119.021,12.357,119.103z"/>
				
					<linearGradient id="SVGID_16_" gradientUnits="userSpaceOnUse" x1="37.6729" y1="335.7065" x2="56.1975" y2="335.7065" gradientTransform="matrix(0.998 -0.0625 0.0625 0.998 -64.4707 -356.7432)">
					<stop  offset="0" style="stop-color:#9E653E"/>
					<stop  offset="0.4479" style="stop-color:#DEA071"/>
					<stop  offset="0.6012" style="stop-color:#D79A6C"/>
					<stop  offset="1" style="stop-color:#9E653E"/>
				</linearGradient>
				<path style="fill:url(#SVGID_16_);" d="M16.445,90.63c-0.006-0.532-0.001-1.062,0.02-1.589
					c-0.653-8.394-1.354-16.908-2.031-25.143c-0.629-7.639-1.279-15.538-1.891-23.338l-0.539-6.607
					c-0.313-3.665-0.605-7.364-0.887-10.941c-0.352-4.461-0.715-9.074-1.124-13.65L9.936,8.658c-0.02-0.23-0.038-0.459-0.055-0.687
					l-0.012-0.14C9.835,7.424,9.802,7.023,9.77,6.67C9.208,0.56,8.728-5.677,8.263-11.709c-0.297-3.859-0.604-7.85-0.929-11.751
					l-0.109-1.363c-2.513-31.344-5.749-72.71-8.49-114.725l0.006-0.052l0.024-0.081c0.006-0.019,0.012-0.036,0.018-0.053
					c-0.328-0.146-0.665-0.432-0.997-0.652c2.993,40.103,6.152,80.683,9.393,120.639c0.032,0.429,0.066,0.857,0.103,1.286
					l0.007,0.094c0.378,4.741,0.767,9.46,1.157,14.192C8.737-0.643,9.029,2.896,9.316,6.457C9.354,6.881,9.393,7.339,9.43,7.802
					L9.487,8.49c0.021,0.231,0.04,0.466,0.058,0.705c0.633,7.788,1.303,15.736,1.95,23.424l0.115,1.368
					c0.035,0.435,0.074,0.89,0.113,1.352l0.453,5.401c0.822,10.111,1.716,20.388,2.582,30.326
					C15.316,77.476,15.892,84.091,16.445,90.63z"/>
				
					<linearGradient id="SVGID_17_" gradientUnits="userSpaceOnUse" x1="37.7051" y1="326.2456" x2="56.2629" y2="326.2456" gradientTransform="matrix(0.998 -0.0625 0.0625 0.998 -64.4707 -356.7432)">
					<stop  offset="0" style="stop-color:#9E653E"/>
					<stop  offset="0.4479" style="stop-color:#DEA071"/>
					<stop  offset="0.6012" style="stop-color:#D79A6C"/>
					<stop  offset="1" style="stop-color:#9E653E"/>
				</linearGradient>
				<path style="fill:url(#SVGID_17_);" d="M17.007,29.848c-1.242-15.504-2.528-31.535-3.774-47.308l-0.103-1.333
					c-0.882-8.065-1.532-16.374-1.932-24.69l-0.209-2.709c-2.466-31.969-4.398-58.639-6.082-83.935
					c-0.037-1.278-0.333-2.568-0.62-3.815c-0.322-1.401-0.656-2.85-0.63-4.315c0.058-1.07,0.081-2.194,0.071-3.405
					c-0.333,0.188-0.683,0.506-1.024,0.77c0.064,1.779,0.125,3.575,0.182,5.454c0.036,1.247,0.413,2.353,0.812,3.523
					c0.467,1.367,0.949,2.78,0.944,4.566c-0.02,0.494-0.089,0.981-0.156,1.455c-0.082,0.575-0.159,1.119-0.125,1.564
					c0.238,8.618,0.957,17.273,1.652,25.644c0.379,4.559,0.771,9.273,1.069,13.83c0.041,1.433,0.304,2.998,0.582,4.654
					c0.249,1.479,0.506,3.007,0.623,4.555c0.708,10.406,1.457,21.12,2.226,31.845c0.021,0.273,0.093,1.29,0.093,1.29
					c0.144,2.187,0.278,4.369,0.412,6.546c0.444,7.211,0.903,14.668,1.684,22.037l0.1,1.337c1.305,17.419,2.689,35.375,4.23,54.891
					l0.107,1.341c0.059,0.854,0.127,1.669,0.193,2.458l0.018,0.219c0.036,0.446,0.071,0.893,0.105,1.337l0.077,0.954l0.136,1.726
					c0.037,0.447,0.073,0.892,0.106,1.339l0.32,4.016c0.055,0.755,0.119,1.521,0.184,2.304l0.031,0.371c0,0,0.25,3.121,0.323,4.018
					l0.106,1.344c0.037,0.8,0.117,1.797,0.215,2.671c0.036,0.446,0.071,0.89,0.106,1.339l0.108,1.336
					c0.079,1.025,0.161,2.029,0.243,3.023l0.024,0.296c0.22-1.255,0.466-2.449,0.676-3.721
					C19.082,55.725,18.044,42.786,17.007,29.848z"/>
				
					<linearGradient id="SVGID_18_" gradientUnits="userSpaceOnUse" x1="37.6089" y1="350.1792" x2="56.1548" y2="350.1792" gradientTransform="matrix(0.998 -0.0625 0.0625 0.998 -64.4707 -356.7432)">
					<stop  offset="0" style="stop-color:#9E653E"/>
					<stop  offset="0.4479" style="stop-color:#DEA071"/>
					<stop  offset="0.6012" style="stop-color:#D79A6C"/>
					<stop  offset="1" style="stop-color:#9E653E"/>
				</linearGradient>
				<path style="fill:url(#SVGID_18_);" d="M9.45,51.415C6.047,9.597,2.527-33.646-0.598-76.261
					c-0.022-0.292-0.099-1.365-0.099-1.365c-0.027-0.306-0.051-0.615-0.072-0.919c-0.021-0.304-0.04-0.609-0.059-0.91
					c-0.112-1.609-0.217-3.225-0.323-4.845c-0.264-4.047-0.538-8.23-0.912-12.299l-0.084-1.212
					c-0.201-2.834-0.398-5.668-0.594-8.501c-0.035-0.465-0.168-0.972-0.31-1.508c-0.18-0.679-0.365-1.382-0.339-2.003
					c-0.146-2.608-0.332-5.209-0.511-7.726c-0.269-3.773-0.548-7.678-0.691-11.611c-0.058-0.769-0.034-1.554-0.01-2.312
					c0.035-1.124,0.071-2.286-0.165-3.409c-0.212-1.388-0.407-2.836-0.593-4.383c-0.132,0.048-0.264,0.098-0.396,0.146l0.001,0.024
					c0.141,2.144,0.282,4.289,0.425,6.429c0.126,1.676,0.284,3.363,0.451,5.148c0.503,5.38,1.022,10.942,0.644,16.14
					c-0.118,1.187,0.229,2.441,0.597,3.771c0.307,1.11,0.625,2.258,0.719,3.496c0.122,1.954,0.247,3.908,0.372,5.864l0.118,1.81
					c0.383,3.815,0.616,7.75,0.841,11.556c0.122,2.057,0.248,4.183,0.396,6.259c0.023,0.35,0.044,0.694,0.063,1.041
					c0.017,0.349,0.032,0.695,0.041,1.036c0.033,0.46,0.064,0.92,0.096,1.378C1.619-37.982,4.759-0.179,7.795,36.379
					c2.246,27.032,4.568,54.981,6.656,82.452c0.036-0.256,0.064-0.542,0.084-0.871c0.038-0.616,0.087-1.196,0.144-1.758
					C12.965,94.595,11.178,72.646,9.45,51.415z"/>
				
					<linearGradient id="SVGID_19_" gradientUnits="userSpaceOnUse" x1="37.5488" y1="340.5483" x2="56.0763" y2="340.5483" gradientTransform="matrix(0.998 -0.0625 0.0625 0.998 -64.4707 -356.7432)">
					<stop  offset="0" style="stop-color:#9E653E"/>
					<stop  offset="0.4479" style="stop-color:#DEA071"/>
					<stop  offset="0.6012" style="stop-color:#D79A6C"/>
					<stop  offset="1" style="stop-color:#9E653E"/>
				</linearGradient>
				<path style="fill:url(#SVGID_19_);" d="M7.735,101c0.018,0.037,0.034,0.079,0.05,0.119c-0.153-1.673-0.381-3.361-0.788-4.937
					c-0.862-3.4-0.857-6.977-0.852-10.435c0.002-1.65,0.005-3.356-0.089-5.002l-0.008-0.212c-0.008-0.213-0.016-0.432-0.018-0.684
					c-1.415-17.576-2.87-35.435-4.277-52.706C-0.796-4.15-3.434-36.512-5.923-68.363c-0.035-0.453-0.068-0.908-0.1-1.376
					c-0.037-3.081-0.283-6.2-0.521-9.215c-0.108-1.365-0.219-2.775-0.311-4.168c-0.031-0.359-0.066-0.723-0.103-1.083
					c-0.118-1.166-0.263-2.228-0.44-3.259c-0.038-0.463-0.073-0.918-0.107-1.375c-1.338-17.465-2.602-34.538-3.759-50.77
					c-0.01-0.01-0.021-0.021-0.031-0.031c-0.044-0.042-0.088-0.085-0.133-0.132c-0.16-0.139-0.323-0.221-0.486-0.248
					c1.078,15.242,2.244,31.109,3.562,48.455l0.196,2.573l0.087,1.19c0.267,2.28,0.445,4.019,0.579,5.642l0.087,1.121
					c0.333,3.656,0.665,7.542,0.747,11.338c0.021,0.398,0.051,0.791,0.079,1.183l0.014,0.181C-4.224-38.3-1.746-7.761,0.65,21.772
					C1.474,31.93,2.298,42.088,3.119,52.251c0.073,0.912,0.146,1.826,0.219,2.744c0.106,1.612,0.251,3.404,0.443,5.481
					c0.077,0.914,0.15,1.828,0.223,2.743c0.44,5.485,0.881,10.972,1.319,16.46l0.17,2.006c-0.01,0.403,0,0.672,0.008,0.932
					l0.002,0.062c0.094,4.049,0.223,8.389,0.528,12.692c0.021,0.253,0.114,0.503,0.188,0.704l0.051,0.14
					c0.094,0.365,0.146,0.734,0.181,1.074c0.215,0.753,0.44,1.481,0.686,2.172C7.326,99.998,7.524,100.506,7.735,101z"/>
			</g>
		</g>
	</g>
</g>
<g id="Layer_25" style="display:none;">
	<path style="display:inline;fill:#848484;" d="M-71.814,188.351c0,0-184.719-235.297,212.945-121.339
		C538.795,180.971-71.814,188.351-71.814,188.351"/>
	<path style="display:inline;fill:#848484;" d="M-60.647,180.042c0,0-128.601-156.798,136.785-102.439
		c25.721,6.426,162.506-53.79,201.085,15.482c0,0,149.45-98.944,195.728-23.603c46.277,75.339,20.184,67.066,20.184,67.066
		s111.968,26.705,84.547,56.453c-27.419,29.748-55.532,47.188-55.532,47.188s-97.619,40.248-102.296,50.771
		c-4.676,10.522,16.369,84.177-68.976,74.823c-85.346-9.354-142.631-38.58-142.631-38.58s-14.503-22.811-32.735-26.892
		c-18.23-4.081-102.882,70.147-157.245-15.197C-36.096,199.769-153.006,205.911-60.647,180.042z"/>
</g>
<g id="Layer_20" style="display:none;">
	<path style="display:inline;fill:#9CDA49;" d="M-69.814,179.351c0,0-184.719-235.297,212.945-121.339
		C540.795,171.971-69.814,179.351-69.814,179.351"/>
</g>
<g id="Layer_19" style="display:none;">
	<path style="display:inline;fill:#5FAF84;" d="M-58.647,171.042c0,0-128.601-156.798,136.785-102.439
		c25.721,6.425,162.506-53.79,201.085,15.483c0,0,149.45-98.944,195.728-23.604c46.277,75.339,20.184,67.066,20.184,67.066
		s111.968,26.705,84.547,56.453c-27.419,29.748-55.532,47.188-55.532,47.188s-97.619,40.248-102.296,50.771
		c-4.676,10.522,16.369,84.177-68.976,74.823c-85.346-9.354-142.631-38.58-142.631-38.58s-14.503-22.811-32.735-26.892
		c-18.231-4.081-102.883,70.147-157.246-15.197C-34.096,190.769-151.006,196.911-58.647,171.042z"/>
</g>
<g id="Layer_17" style="display:none;">
	<path style="display:inline;fill:#00C0C0;" d="M93.953,108.685c0,0-194.975-54.689-153.959,52.308c0,0-75.49,38.044,42.206,46.365
		c0,0-54.686,40.422,43.988,36.856c0,0,49.931,90.353,152.172,33.881c0,0,20.212,37.066,72.521,15.858
		c0,0,167.627,93.724,128.396-0.001c-4.757-29.529,161.683-31.906,170.004-98.482c4.757-34.478-67.765-13.076-67.765-13.076
		s59.444-20.21-1.187-28.533c-16.646,0,35.666-185.461-211.616-52.31c-5.944,8.323-109.375-27.343-109.375-27.343
		S92.566,85.764,86.82,95.606C81.074,105.448,93.953,108.685,93.953,108.685z"/>
	<path style="display:inline;fill:#00C0C0;" d="M113.244,98.163c0,0-194.976-54.688-153.959,52.309c0,0-75.49,38.042,42.206,46.365
		c0,0-54.686,40.421,43.988,36.854c0,0,49.931,90.354,152.172,33.882c0,0,20.212,37.067,72.521,15.857
		c0,0,167.627,93.726,128.396-0.001c-4.758-29.527,161.682-31.906,170.006-98.481c4.755-34.477-67.767-13.078-67.767-13.078
		s59.444-20.209-1.187-28.532c-16.646,0,35.666-185.46-211.616-52.31c-5.944,8.323-109.375-27.343-109.375-27.343
		s-66.773,11.557-72.52,21.398C100.364,94.926,113.244,98.163,113.244,98.163z"/>
</g>
<g id="swamp" style="display:none;">
	<linearGradient id="SVGID_20_" gradientUnits="userSpaceOnUse" x1="379.8794" y1="15.0513" x2="104.1479" y2="320.3463">
		<stop  offset="0.6707" style="stop-color:#00C5FB"/>
		<stop  offset="1" style="stop-color:#0090D4"/>
	</linearGradient>
	<path style="display:inline;fill:url(#SVGID_20_);" d="M105.028,104.259c0,0-191.736-53.778-151.4,51.44
		c0,0-74.237,37.411,41.504,45.595c0,0-53.777,39.75,43.257,36.243c0,0,49.102,88.853,149.645,33.319
		c0,0,19.875,36.449,71.315,15.595c0,0,164.844,92.167,126.264-0.003c-4.678-29.037,158.996-31.377,167.18-96.846
		c4.678-33.903-66.639-12.859-66.639-12.859s58.456-19.875-1.168-28.059c-16.367,0,35.074-182.379-208.1-51.439
		c-5.846,8.182-107.558-26.891-107.558-26.891s-65.665,11.366-71.315,21.043C92.363,101.076,105.028,104.259,105.028,104.259z"/>
</g>
<g id="roseaux">
	<path style="fill:#9BD663;" d="M62.939,137.328c0,0,5.614-36.07-10.522-100.455c0,0,21.629,50.455,16.368,100.455H62.939z"/>
	<path style="fill:#FFE000;" d="M52.055,28.205c0,0,3.371-14.577,5.885-13.217c0,0-3.617,1.874-7.145,11.833
		c-3.528,9.958,3.141-13.617,3.141-13.617s-5.645,12.443-5.4,15.513c0.245,3.07-6.354-14.985-8.738-11.249
		c-2.383,3.738,8.507,8.422,7.959,12.902"/>
	
		<ellipse transform="matrix(0.9732 -0.2301 0.2301 0.9732 -7.7345 13.4702)" style="fill:#EFB160;stroke:#C6A06A;stroke-miterlimit:10;" cx="53.888" cy="39.898" rx="6.084" ry="13.438"/>
	<path style="fill:#50A20C;" d="M54.171,137.328c0,0,15.784-29.812-32.735-93.529c0,0,43.842,43.529,38.581,93.529H54.171z"/>
	<path style="fill:#FFE000;" d="M15.59,34.991c0,0-2.85-14.687,0-14.468c0,0-2.542,3.182-1.714,13.714
		c0.828,10.532-2.669-13.718-2.669-13.718s-0.094,13.665,1.377,16.369c1.472,2.706-11.9-11.104-12.558-6.72
		c-0.658,4.384,11.197,4.232,12.519,8.549"/>
	
		<ellipse transform="matrix(0.7954 -0.6061 0.6061 0.7954 -22.7236 22.5375)" style="fill:#FF9800;stroke:#AD7823;stroke-miterlimit:10;" cx="22.021" cy="44.927" rx="6.083" ry="13.439"/>
	<path style="fill:#50A20C;" d="M62.939,137.328c0,0,0-43.841,40.334-98.862c0,0-29.227,48.862-34.488,98.862H62.939z"/>
	<path style="fill:#FFE000;" d="M110.115,31.932c0,0,13.114-7.199,13.776-4.418c0,0-3.807-1.449-13.583,2.556
		c-9.775,4.005,12.246-6.732,12.246-6.732s-13.039,4.083-15.165,6.312c-2.125,2.226,6.938-14.725,2.563-14.012
		c-4.375,0.714-0.609,11.956-4.315,14.533"/>
	
		<ellipse transform="matrix(0.8202 0.5721 -0.5721 0.8202 41.9653 -51.3221)" style="fill:#FF9800;stroke:#AD7823;stroke-miterlimit:10;" cx="102.619" cy="41.092" rx="6.083" ry="13.437"/>
	<path style="fill:#9BD663;" d="M121.536,139.328c0,0-5.614-36.07,10.522-100.455c0,0-21.629,49.455-16.368,100.455H121.536z"/>
	<path style="fill:#FFE000;" d="M132.42,29.959c0,0-3.372-14.577-5.885-13.217c0,0,3.617,1.874,7.145,11.832
		c3.527,9.958-3.141-13.617-3.141-13.617s5.644,12.444,5.4,15.513c-0.245,3.07,6.354-14.985,8.737-11.248
		c2.384,3.738-8.507,8.422-7.958,12.902"/>
	
		<ellipse transform="matrix(-0.9732 -0.2301 0.2301 -0.9732 248.0864 112.2329)" style="fill:#EFB160;stroke:#C6A06A;stroke-miterlimit:10;" cx="130.587" cy="41.652" rx="6.084" ry="13.438"/>
	<path style="fill:#50A20C;" d="M146.995,136.966c0,0,0-37.339,2.512-114.873c0,0,4.794,70.768,2.991,116.846L146.995,136.966z"/>
	<path style="fill:#FFE000;" d="M141.802,15.099c0,0,2.276-14.788,4.884-13.618c0,0-3.468,2.137-6.243,12.332
		C137.667,24.006,142.56,0,142.56,0s-4.701,12.829-4.228,15.872c0.473,3.041-7.452-14.471-9.552-10.567
		c-2.099,3.905,9.111,7.765,8.898,12.274"/>
	
		<ellipse transform="matrix(0.992 -0.1261 0.1261 0.992 -1.7194 19.0679)" style="fill:#FF9800;stroke:#AD7823;stroke-miterlimit:10;" cx="149.762" cy="23.116" rx="6.084" ry="13.438"/>
	<path style="fill:#50A20C;" d="M151.947,106.89c0,0,0.357-0.715,0.957-1.973c3.095-6.484,12.623-27.342,12.623-38.361
		l-15.578,24.258L151.947,106.89z"/>
	<path style="fill:#50A20C;" d="M78.495,80.515c0,0-2.857-17.295,0-25.71c0,0-7.008,27.101-4.409,36.009
		C76.688,99.723,78.495,80.515,78.495,80.515z"/>
</g>
<g id="lilies" style="display:none;">
</g>
<g id="DUCK" style="display:none;">
</g>
<g id="Layer_28" style="display:none;">
	<g style="display:inline;">
	</g>
</g>
<g id="myFrog" style="display:none;">
	<g id="legs" style="display:inline;">
	</g>
	<g id="Layer_30" style="display:inline;">
	</g>
	<g id="body" style="display:inline;">
	</g>
	<g id="shoulders" style="display:inline;">
	</g>
	<g id="bill" style="display:inline;">
	</g>
	<g id="headGreen" style="display:inline;">
	</g>
	<g id="headBottom" style="display:inline;">
	</g>
	<g id="mouth" style="display:inline;">
	</g>
	<g id="tongue" style="display:inline;">
	</g>
	<g id="eyes" style="display:inline;">
	</g>
	<g id="nose" style="display:inline;">
	</g>
	<g id="shadow" style="display:inline;">
	</g>
	<g id="armL" style="display:inline;">
	</g>
	<g id="armR" style="display:inline;">
	</g>
</g>
<g id="Layer_31" style="display:none;">
</g>
</svg>
