<?xml version="1.0" encoding="iso-8859-1"?>
<!-- Generator: Adobe Illustrator 16.2.1, SVG Export Plug-In . SVG Version: 6.00 Build 0)  -->
<!DOCTYPE svg PUBLIC "-//W3C//DTD SVG 1.1//EN" "http://www.w3.org/Graphics/SVG/1.1/DTD/svg11.dtd">
<svg version="1.1" xmlns="http://www.w3.org/2000/svg" xmlns:xlink="http://www.w3.org/1999/xlink" x="0px" y="0px"
	 width="59.203px" height="36.875px" viewBox="0 0 59.203 36.875" style="enable-background:new 0 0 59.203 36.875;"
	 xml:space="preserve">
<g id="legs" style="display:none;">
	<g style="display:inline;">
		<path style="fill:#00AF35;stroke:#0E0F0F;stroke-miterlimit:10;" d="M11.136,37.959c0,0-24.916-16.599-33.8-6.079
			C-31.549,42.401,4.688,51.798,4.688,51.798s-23.613,8.604-24.08,10.007c-0.468,1.403,12.926-2.855,12.926-2.855l-7.315,8.7
			l11.456-5.143l-4.141,9.819l22.704-22.911L11.136,37.959z"/>
		<path style="fill:#00AF35;stroke:#0E0F0F;stroke-miterlimit:10;" d="M47.665,37.959c0,0,24.916-16.599,33.8-6.079
			c8.885,10.521-27.353,19.917-27.353,19.917s23.613,8.604,24.08,10.007c0.468,1.403-12.926-2.855-12.926-2.855l7.315,8.7
			l-11.456-5.143l4.141,9.819L42.562,49.414L47.665,37.959z"/>
	</g>
</g>
<g id="Layer_30" style="display:none;">
	<g style="display:inline;">
		<path style="fill:#00AF35;stroke:#0E0F0F;stroke-miterlimit:10;" d="M24.564,65.779c6.542-10.521,4.303-46.29-4.582-35.77
			C11.099,40.53,4.688,81.956,4.688,81.956s-23.613,8.604-24.08,10.008c-0.468,1.402,12.926-2.855,12.926-2.855l-7.315,8.699
			l11.456-5.143l-4.141,9.818l22.704-22.91C16.238,79.573,18.021,76.3,24.564,65.779z"/>
		<path style="fill:#00AF35;stroke:#0E0F0F;stroke-miterlimit:10;" d="M36.271,65.779c-6.542-10.521-4.303-46.29,4.582-35.77
			c8.884,10.521,15.294,51.946,15.294,51.946s23.613,8.604,24.08,10.008c0.468,1.402-12.926-2.855-12.926-2.855l7.315,8.699
			L63.16,92.665l4.141,9.818l-22.704-22.91C44.597,79.573,42.813,76.3,36.271,65.779z"/>
	</g>
</g>
<g id="body" style="display:none;">
	<path style="display:inline;fill:#00AF35;stroke:#0E0F0F;stroke-miterlimit:10;" d="M17.538,4.868c0,0-17.175,14.973-18.227,26.72
		c-0.614,6.856,0.643,12.876,7.105,16.526c4.611,2.604,11.872,4.003,22.994,3.638c26.71-0.877,29.458-7.89,30.013-18.937
		S42.233,5.448,42.233,5.448L17.538,4.868"/>
</g>
<g id="shoulders">
	<path id="XMLID_2_" style="fill:#007530;" d="M18.032,4.868c0,0-19.748,20.349-17.911,26.72c1.839,6.371,29.474,5.202,29.474,5.202
		s30.313,0.871,29.596-3.975c-0.717-4.846-3.892-15.459-16.893-27.368S18.032,4.868,18.032,4.868z"/>
</g>
<g id="bill" style="display:none;">
	<path style="display:inline;fill:#FFFFFF;stroke:#0B0C0C;stroke-miterlimit:10;" d="M6.417,48.114c0,0,4-31.43,22.117-31.08
		c18.119,0.351,23.294,30.634,23.839,30.309c0.546-0.325-1.98,3.882-22.962,4.408C8.429,52.278,6.417,48.114,6.417,48.114z"/>
</g>
<g id="headGreen" style="display:none;">
	<path style="display:inline;fill:#00AE37;stroke:#020202;stroke-miterlimit:10;" d="M-2.325,7.566c0,0,0.936-31.911,30.859-31.969
		c29.925-0.059,30.86,30.801,30.86,30.801s-2.338,14.729-30.86,14.962C0.013,21.594-2.325,7.566-2.325,7.566z"/>
</g>
<g id="headBottom" style="display:none;">
	<path style="display:inline;fill:#FFFFFF;stroke:#020202;stroke-miterlimit:10;" d="M6.419,17.191c0,0,3.412-29.964,22.817-29.029
		c19.404,0.935,21.976,27.586,21.976,27.586s-5.145,5.845-21.977,5.845S6.419,17.191,6.419,17.191z"/>
</g>
<g id="mouth" style="display:none;">
	<path style="display:inline;fill:#8E1010;stroke:#020202;stroke-miterlimit:10;" d="M12.169,0.085c0,0,3.087-11.622,16.021-11.923
		S46.653,0.085,46.653,0.085s-6.08,10.754-17.242,10.754C18.248,10.839,12.169,0.085,12.169,0.085z"/>
</g>
<g id="tongue" style="display:none;">
	<path style="display:inline;fill:#FF0600;" d="M16.845,4.06c0,0,3.975-7.013,13.093-6.78c9.117,0.233,12.624,6.78,12.624,6.78
		S38.12,9.437,29.704,9.437C21.287,9.437,16.845,4.06,16.845,4.06z"/>
</g>
<g id="eyes" style="display:none;">
	<g style="display:inline;">
		<ellipse style="fill:#FFFFFF;stroke:#000000;stroke-miterlimit:10;" cx="13.222" cy="-23.176" rx="10.403" ry="11.339"/>
		<ellipse style="fill:#FFFFFF;stroke:#000000;stroke-miterlimit:10;" cx="44.783" cy="-23.176" rx="10.404" ry="11.339"/>
		<circle cx="16.238" cy="-23.176" r="5.103"/>
		<circle cx="42.233" cy="-23.176" r="5.103"/>
		<circle style="fill:#F7F7F7;" cx="17.539" cy="-24.187" r="2.359"/>
		<circle style="fill:#F7F7F7;" cx="41.222" cy="-24.187" r="2.359"/>
	</g>
</g>
<g id="nose" style="display:none;">
	<g style="display:inline;">
		<line style="fill:none;stroke:#000000;stroke-miterlimit:10;" x1="26.752" y1="-13.124" x2="25.524" y2="-14.79"/>
		<line style="fill:none;stroke:#000000;stroke-miterlimit:10;" x1="30.697" y1="-13.124" x2="31.486" y2="-14.79"/>
	</g>
</g>
<g id="shadow" style="display:none;">
	<path style="display:inline;opacity:0.4;fill:#020202;" d="M-2.092,4.868c0,0,3.741,13.92,31.912,13.745s29.32-15.257,29.32-15.257
		l0.283,3.042c0,0-3.815,14.671-30.057,15.196C3.125,22.12-2.325,8.794-2.325,8.794L-2.092,4.868z"/>
</g>
<g id="armL" style="display:none;">
	<path style="display:inline;fill:#007530;stroke:#000000;stroke-miterlimit:10;" d="M3.052,28.338c0,0,7.014,14.063,3.741,27.155
		c0,0,3.74-1.403,4.441-3.975l0.936,7.247c0,0,2.338-2.338,2.806-5.845c0.467-3.507,2.805,4.675,3.039,5.845
		c0.233,1.169,3.975-2.805-6.312-24.313L9.13,28.338"/>
</g>
<g id="armR" style="display:none;">
	<path style="display:inline;fill:#00712A;stroke:#000000;stroke-miterlimit:10;" d="M54.636,28.338c0,0-7.013,14.063-3.74,27.155
		c0,0-3.74-1.403-4.441-3.975l-0.936,7.247c0,0-2.338-2.338-2.806-5.845c-0.467-3.507-2.806,4.675-3.039,5.845
		c-0.233,1.169-3.975-2.805,6.312-24.313l2.572-6.114"/>
</g>
</svg>
